<svg width="19" height="26" viewBox="0 0 19 26" fill="none" xmlns="http://www.w3.org/2000/svg">
<path fill-rule="evenodd" clip-rule="evenodd" d="M0.153544 4.51566C-0.398616 7.45307 0.49552 11.5076 3.53549 16.6093C6.44374 21.4979 9.73791 24.4872 12.6368 25.4977C14.2336 26.0518 15.7019 26.2344 16.847 25.5951L18.0422 24.9255C18.9552 24.411 19.2721 23.2817 18.745 22.3929L16.8344 19.1815C16.3042 18.2957 15.1277 17.9943 14.2242 18.4997C13.3112 19.011 12.4422 19.4006 10.9677 19.2089C9.50885 19.0232 7.76146 17.3795 6.35909 15.0295C5.01319 12.7587 4.32297 10.3509 4.88139 9.02982C5.44929 7.69658 6.25243 7.13949 7.1591 6.63422C8.06263 6.12591 8.38574 4.98742 7.85872 4.09859L5.95126 0.890234C5.42102 0.00445175 4.28217 -0.251221 3.36924 0.263166L2.17393 0.929821C0.92215 1.62991 0.454721 2.8962 0.153544 4.51566Z" fill="white"/>
</svg>
