<svg width="20" height="17" viewBox="0 0 20 17" fill="none" xmlns="http://www.w3.org/2000/svg">
<path fill-rule="evenodd" clip-rule="evenodd" d="M17.495 0.133021C17.7166 -0.000270054 17.9812 -0.0425447 18.2333 0.0150692C18.4854 0.072683 18.7054 0.225706 18.847 0.442021L19.837 1.95202C19.9661 2.14928 20.0213 2.38579 19.993 2.61981C19.9646 2.85382 19.8545 3.0703 19.682 3.23102L19.679 3.23502L19.665 3.24802L19.608 3.30102L19.383 3.51602C18.1381 4.72368 16.9308 5.96961 15.763 7.25202C13.566 9.66802 10.957 12.83 9.20104 15.898C8.71104 16.754 7.51404 16.938 6.80404 16.199L0.319035 9.46102C0.2261 9.36442 0.153535 9.25013 0.105652 9.12493C0.0577684 8.99973 0.0355453 8.86618 0.040303 8.73222C0.0450606 8.59826 0.0767019 8.46662 0.133346 8.34513C0.189991 8.22364 0.270482 8.11478 0.370035 8.02502L2.33004 6.25702C2.50228 6.10173 2.72314 6.01113 2.95481 6.00074C3.18649 5.99034 3.41458 6.06079 3.60004 6.20002L6.90904 8.68102C12.078 3.58402 15.009 1.62802 17.495 0.133021ZM17.705 2.34902C15.415 3.78102 12.557 5.85802 7.70704 10.707C7.53684 10.8772 7.31098 10.9803 7.07089 10.9974C6.8308 11.0145 6.59261 10.9444 6.40003 10.8L3.05804 8.29402L2.47704 8.81802L7.79403 14.344C9.64003 11.274 12.181 8.21802 14.284 5.90602C15.3915 4.68951 16.5336 3.50502 17.709 2.35402L17.705 2.34902Z" fill="#DF1B2A"/>
</svg>
