<svg width="24" height="26" viewBox="0 0 24 26" fill="none" xmlns="http://www.w3.org/2000/svg">
<g clip-path="url(#clip0_3124_144)">
<path fill-rule="evenodd" clip-rule="evenodd" d="M12.4454 0.0367432C16.1391 0.0367432 19.9729 0.359633 23.8643 1.0474C23.9224 2.64481 23.9883 5.11396 23.8776 7.20923C23.6296 11.8808 22.6256 15.5067 20.7167 18.6203C18.8139 21.7249 15.8673 24.3944 12.4454 25.9798C9.02347 24.3944 6.07671 21.7249 4.17386 18.6203C2.26527 15.5067 1.26098 11.8808 1.01322 7.20923C0.901984 5.11396 0.968114 2.64481 1.02627 1.0474C4.91765 0.359633 8.75173 0.0367432 12.4454 0.0367432Z" fill="white"/>
<path fill-rule="evenodd" clip-rule="evenodd" d="M12.4454 0.683594C15.9549 0.683594 19.5976 0.990373 23.295 1.64379C23.3502 3.16158 23.4128 5.50766 23.3076 7.49843C23.072 11.937 22.1179 15.3821 20.3043 18.3405C18.4963 21.2903 15.6968 23.8267 12.4454 25.333C9.19414 23.8267 6.39432 21.2902 4.58635 18.3405C2.77295 15.3821 1.81873 11.937 1.58326 7.49843C1.54263 6.73275 1.52688 5.91448 1.52612 5.11103V4.97346C1.52744 3.73678 1.5629 2.54449 1.59566 1.64379C5.29301 0.990373 8.93597 0.683594 12.4454 0.683594ZM12.4454 1.11115C8.98564 1.11115 5.47322 1.41237 2.00031 2.00696C1.92412 4.25861 1.92412 6.05023 1.9998 7.4753C2.23106 11.8383 3.16521 15.2187 4.9395 18.1132C6.71359 21.0074 9.37379 23.3981 12.4454 24.8628C15.5168 23.3981 18.1772 21.0074 19.9513 18.1132C21.7256 15.2187 22.6596 11.8383 22.891 7.4753C22.9667 6.05018 22.9667 4.25861 22.8905 2.00696C19.4177 1.41237 15.9049 1.11115 12.4454 1.11115Z" fill="#B2BFCF"/>
<path fill-rule="evenodd" clip-rule="evenodd" d="M12.4152 14.0725C12.4152 14.0725 12.4835 14.4879 12.5043 14.6085C12.516 14.6767 12.5184 14.695 12.5016 14.762C12.447 14.9774 12.1948 16.1129 11.9929 17.2752L11.9614 17.4588C11.879 17.9484 11.8077 18.4344 11.7662 18.8502C11.7427 19.0864 11.7503 19.143 11.8112 19.3526C11.9838 19.9449 12.6219 21.4923 12.7444 21.7745C12.758 21.8057 12.7662 21.8384 12.7702 21.8722L12.8162 22.2372C12.6118 21.9207 11.5008 19.8279 11.0644 18.6689C11.0129 18.5324 11.0031 18.4652 11.06 18.2142C11.3634 16.8827 12.1845 14.6201 12.4152 14.0725Z" fill="#B2BFCF"/>
<path fill-rule="evenodd" clip-rule="evenodd" d="M10.7951 10.856C10.7951 10.856 10.8804 11.1394 10.9628 11.4472L10.9916 11.5564C11.0436 11.757 11.0899 11.9549 11.1068 12.0801C11.1229 12.2007 11.1201 12.2332 11.0783 12.3487C10.9768 12.6252 10.7902 13.0701 10.591 13.5249L10.5052 13.7199C10.2608 14.2717 10.0134 14.8048 9.89335 15.0355C9.83418 15.1492 9.77851 15.2233 9.66708 15.3393C9.41287 15.6044 8.92623 16.1056 8.62499 16.386C8.51559 16.488 8.48613 16.5751 8.46383 16.707C8.42797 16.9189 8.39232 17.2806 8.38236 17.4673C8.37373 17.6315 8.39973 17.7084 8.48912 17.871C9.02005 18.8417 10.7926 21.0748 11.2976 21.5438C11.3342 21.5778 11.361 21.6006 11.4382 21.6532C11.5124 21.7039 11.7545 21.8648 11.7545 21.8648C11.7642 21.8716 11.7723 21.8808 11.7785 21.8912L11.8661 22.0493L11.8432 22.0376L11.8054 22.0184L11.6885 21.9586L11.5759 21.9009C11.4034 21.8122 11.1978 21.7055 11.0896 21.6457C11.0451 21.6212 11.0033 21.5923 10.9644 21.559C10.373 21.0556 8.56084 18.8821 8.02794 17.9746C7.89502 17.748 7.88141 17.6747 7.89923 17.4602C7.9326 17.0611 7.98436 16.5591 8.02972 16.3391C8.05714 16.2063 8.08559 16.1284 8.18488 16.0112C8.51843 15.6177 8.92532 15.0981 9.32175 14.5651L9.46112 14.3765C10.062 13.5588 10.6154 12.7402 10.8221 12.3232C10.8694 12.2283 10.8733 12.1954 10.8743 12.1058C10.877 11.846 10.7961 11.3399 10.7748 11.212C10.7715 11.192 10.7707 11.1716 10.7723 11.1514L10.7951 10.856ZM15.7409 10.3683L15.8941 10.4365C15.9396 10.4567 15.9806 10.486 16.0149 10.5226C16.9543 11.5275 17.7055 12.5694 17.8561 12.844C17.885 12.8968 17.9048 12.9496 17.912 13.0099C18.0808 14.4755 17.9357 16.028 17.5909 17.3785C17.5597 17.5003 17.5249 17.5628 17.4105 17.6508C17.0424 17.9346 16.4928 18.3872 15.9463 18.8486L15.7741 18.9944C15.1158 19.5531 14.4904 20.1 14.225 20.3516C14.1583 20.4148 14.1004 20.4869 14.0527 20.5661C13.9283 20.7734 13.7383 21.1302 13.645 21.3073L13.6189 21.3569L13.5893 21.4134C13.4656 21.1365 13.1958 20.461 13.1032 20.1879C13.073 20.0989 13.0676 20.0522 13.0995 19.9329C13.2505 19.3668 13.9641 17.7209 14.1029 17.4232L14.1032 17.545C14.1032 17.5628 14.1005 17.5803 14.0951 17.597C14.0324 17.7916 13.6488 19.0889 13.5708 19.6515C13.5535 19.7766 13.555 19.8104 13.5708 19.9332C13.6049 20.1959 13.7582 20.6774 13.7582 20.6774C13.7582 20.6774 13.849 20.4831 13.9337 20.3516C13.9752 20.2872 14.0002 20.2562 14.068 20.1872C14.4111 19.8394 14.9965 19.3017 15.6061 18.7611L15.8219 18.5705C16.2902 18.1585 16.7578 17.7576 17.1271 17.4513C17.2231 17.3717 17.259 17.3183 17.2803 17.1672C17.3862 16.4221 17.4169 15.0848 17.353 14.1116C17.3409 13.9278 17.2827 13.7502 17.1818 13.5977C16.9501 13.2468 16.6731 12.9146 16.253 12.488C16.1929 12.4269 16.1524 12.3486 16.1369 12.2634C16.0144 11.5935 15.7409 10.3683 15.7409 10.3683ZM7.79704 11.9182C7.85526 11.899 7.91755 11.8967 7.97699 11.9115C8.24482 11.9774 8.81165 12.1197 9.24018 12.2321C9.30031 12.2479 9.37528 12.3055 9.40728 12.3601L9.50058 12.5191C9.51665 12.5465 9.52562 12.5776 9.52666 12.6095C9.52769 12.6414 9.52074 12.673 9.50647 12.7014C9.42861 12.8562 9.31753 13.0657 9.2001 13.2818L9.11122 13.4444C8.94767 13.7418 8.78483 14.0288 8.69234 14.1798C8.63144 14.2796 8.59756 14.3237 8.48917 14.363C8.06761 14.515 7.54405 14.6968 7.2329 14.8C7.16931 14.8211 7.14778 14.8607 7.16012 14.933C7.18247 15.0647 7.25418 15.5118 7.28171 15.6423C7.29187 15.6904 7.32946 15.7288 7.39924 15.7151C7.58316 15.6793 8.07279 15.5565 8.07279 15.5565C8.07279 15.5565 7.92849 15.6933 7.84209 15.774C7.8265 15.7891 7.80781 15.8004 7.78739 15.8072C7.65396 15.8528 7.32824 15.9465 7.22676 15.9694C7.14752 15.9869 7.09703 15.9549 7.07672 15.863C7.07672 15.863 6.93785 15.2571 6.88762 15.051C6.87997 15.0209 6.87146 14.991 6.86212 14.9614C6.82454 14.8421 6.73413 14.6077 6.68319 14.4848C6.6772 14.4706 6.67422 14.4552 6.67445 14.4397C6.67597 14.2994 6.70122 13.9862 6.70122 13.9862C6.70122 13.9862 7.00099 14.2742 7.14605 14.3782C7.17871 14.4018 7.19826 14.4067 7.23839 14.3963C7.43759 14.3438 7.89578 14.1884 8.1473 14.092C8.20459 14.0699 8.2552 14.0328 8.29408 13.9844C8.55424 13.6624 8.88052 13.1615 9.06886 12.7836C9.09486 12.7316 9.09984 12.6719 9.08348 12.6161L9.04285 12.4791C9.03102 12.439 8.98967 12.3938 8.95153 12.3788C8.55311 12.2229 8.15187 12.0747 7.74803 11.9342L7.79704 11.9182Z" fill="#B2BFCF"/>
<path fill-rule="evenodd" clip-rule="evenodd" d="M16.5648 8.01797C16.6621 7.98115 16.7695 7.9837 16.8651 8.0251C17.6081 8.34481 18.8577 9.09698 19.5522 9.62681C19.6193 9.67811 19.646 9.71339 19.6636 9.79608C19.8268 10.5564 19.8886 11.7315 19.7859 12.721C19.7785 12.792 19.7646 12.8347 19.7285 12.9105C19.2884 13.833 18.7931 14.7011 18.2718 15.3708L18.2728 15.3598C18.2796 15.2885 18.317 14.8864 18.319 14.6689C18.3193 14.6443 18.3304 14.6217 18.3495 14.6067C18.4463 14.5296 18.5792 14.4199 18.6544 14.3532C18.6911 14.3207 18.7113 14.2963 18.7304 14.2649C18.9428 13.9132 19.3225 13.1767 19.4755 12.7337C19.513 12.6257 19.5277 12.5109 19.5186 12.3967C19.4695 11.7793 19.375 10.9238 19.2342 10.3655C19.2102 10.2704 19.1487 10.1899 19.0634 10.145C18.9418 10.0811 18.7035 9.96966 18.1606 9.7466C18.0853 9.71575 18.0153 9.67284 17.9532 9.61948C17.5973 9.31291 17.0408 8.85334 16.6945 8.58892C16.6445 8.55066 16.587 8.52397 16.5259 8.51069C16.4648 8.49741 16.4017 8.49786 16.3408 8.512C16.0885 8.57068 15.7675 8.65232 15.5868 8.70258C15.5253 8.71957 15.5011 8.72113 15.4378 8.71349C15.3977 8.70889 15.3575 8.70478 15.3173 8.70117L15.2494 8.69504C15.1705 8.68813 15.0965 8.68226 15.0675 8.67997L15.0546 8.67898C15.6434 8.39554 16.2101 8.15097 16.5648 8.01792V8.01797ZM8.70808 13.0084C8.52391 13.319 8.30388 13.6489 8.13754 13.855C8.1157 13.8819 8.08675 13.9027 8.05389 13.9153C7.8719 13.9852 7.56868 14.0902 7.3454 14.16L8.70808 13.0084ZM6.27411 12.6006L6.16542 13.3692L5.79586 12.9246C5.86321 12.7752 6.05997 12.6341 6.27411 12.6006ZM8.26467 8.24883L8.16375 8.37626C8.15801 8.38182 8.15258 8.38717 8.14689 8.39299C8.058 8.46024 7.68403 8.75382 7.58275 8.83604C7.55405 8.85942 7.54267 8.87969 7.53602 8.91649C7.51322 9.04641 7.47532 9.29332 7.4642 9.4301C7.461 9.47023 7.44414 9.49003 7.40427 9.5065C7.23077 9.57884 7.02511 9.65493 6.85877 9.72322C6.82311 9.73766 6.81321 9.74328 6.79218 9.75975C6.77557 9.77295 6.55453 9.97517 6.55453 9.97517C6.55453 9.97517 7.03502 9.85392 7.21126 9.81302C7.25332 9.80341 7.2714 9.80595 7.3103 9.82471C7.34662 9.84197 7.40732 9.8666 7.43921 9.8785C7.48823 9.89706 7.51423 9.89628 7.56843 9.88406C7.76692 9.83869 8.10087 9.75746 8.27859 9.71002C8.37093 9.68543 8.42142 9.65976 8.49963 9.60369C8.58476 9.54304 8.80037 9.37736 8.80037 9.37736C8.80037 9.37736 8.79641 9.40646 8.79346 9.42273C8.79123 9.43676 8.78625 9.44455 8.77736 9.45547C8.72623 9.51787 8.67332 9.57872 8.61869 9.63793C8.53133 9.73054 8.47911 9.76354 8.36946 9.81047C7.86449 10.0262 7.00159 10.3611 6.35426 10.5909C6.31195 10.606 6.29361 10.6185 6.26222 10.6515C6.22804 10.687 6.18248 10.7388 6.18248 10.7388C6.18248 10.7388 6.7102 10.7781 6.87137 10.7971C6.92358 10.8033 6.96096 10.8207 7.00088 10.856C7.13325 10.9727 7.57163 11.4354 7.70282 11.596C7.70282 11.596 6.4565 11.8084 5.87905 11.9553C5.80774 11.9734 5.77209 12.0198 5.75599 12.0784C5.70824 12.2504 5.59559 12.8036 5.59559 12.8036C5.59559 12.8036 5.55546 12.7905 5.49959 12.7575C5.46119 12.7349 5.44159 12.7161 5.39953 12.6704C5.26291 12.5225 5.03841 12.2392 4.93048 12.0751C4.89883 12.0266 4.88542 11.965 4.92504 11.9155C5.04212 11.7678 5.27728 11.4983 5.40695 11.3598C5.42087 11.3448 5.43844 11.3186 5.45698 11.2811C5.50066 11.1922 5.55816 10.9671 5.57817 10.8858L5.58462 10.8596L5.58543 10.856L5.58198 10.8582L5.55826 10.8735L5.452 10.942C5.41858 10.9638 5.40944 10.9733 5.39562 11.0032C5.36883 11.0595 5.34017 11.1149 5.30968 11.1692C5.30054 11.1854 5.27601 11.2105 5.26296 11.2209C5.09733 11.3506 4.91437 11.4899 4.7842 11.5838C4.77526 11.5901 4.76388 11.5874 4.75621 11.5797C4.7396 11.5627 4.67007 11.4818 4.65768 11.4628C4.64757 11.4481 4.64228 11.4305 4.64259 11.4125C4.64239 11.3787 4.64559 11.3194 4.64879 11.2752C4.65275 11.223 4.66738 11.1981 4.72949 11.1321C4.79908 11.0582 4.87476 10.9806 4.9545 10.9009C5.14979 10.7324 5.64288 10.3224 6.52334 9.67831C6.5399 9.6661 6.55504 9.65186 6.56718 9.63487C6.65977 9.50702 6.92236 9.15783 6.98722 9.07484C6.99636 9.06314 7.00652 9.05223 7.01815 9.04288C7.12187 8.95889 7.17312 8.92257 7.27831 8.85459C7.52363 8.69618 7.99863 8.40744 8.26467 8.24883ZM13.6313 7.9632C13.6682 7.95661 13.7061 7.96193 13.7399 7.97843L13.9971 8.10456C14.0224 8.11703 14.0409 8.14057 14.0476 8.169C14.0825 8.31971 14.1253 8.51949 14.154 8.68922C14.1656 8.75971 14.1528 8.83213 14.1179 8.89403C14.0115 9.08362 13.7929 9.42465 13.6706 9.60789C13.6434 9.64895 13.6401 9.69874 13.6486 9.74769C13.704 10.0619 13.9352 11.1589 13.9352 11.1589L13.7897 11.0231C13.7607 10.9957 13.7417 10.9668 13.7293 10.929C13.6258 10.6186 13.4322 9.97023 13.3431 9.65482C13.336 9.62937 13.335 9.60252 13.3402 9.57657C13.3454 9.55063 13.3567 9.52637 13.3731 9.50588C13.5248 9.31707 13.7459 9.01512 13.8751 8.82377C13.9112 8.76993 13.9231 8.71058 13.9018 8.66615C13.8721 8.60378 13.8221 8.50883 13.7741 8.42277C13.761 8.39891 13.7396 8.38098 13.7142 8.37257L13.5397 8.31519C13.5092 8.30524 13.4764 8.30586 13.4464 8.31696C13.0661 8.45832 12.5547 8.66209 12.2419 8.79508C12.1961 8.81457 12.1773 8.81613 12.1218 8.80756C12.0312 8.79378 11.7673 8.74535 11.6379 8.72045C11.6325 8.71935 11.6274 8.71694 11.6231 8.71342C11.6188 8.70991 11.6154 8.70539 11.6131 8.70025C11.6109 8.69511 11.6099 8.68949 11.6102 8.68387C11.6105 8.67824 11.6121 8.67277 11.6149 8.66791L11.7684 8.39538C11.7786 8.37721 11.7923 8.36139 11.8088 8.34895C11.8253 8.33651 11.8441 8.3277 11.8641 8.32309C12.3577 8.20782 13.0105 8.0754 13.6312 7.9632" fill="#B2BFCF"/>
<path fill-rule="evenodd" clip-rule="evenodd" d="M8.16918 9.21492C8.19269 9.21284 8.21494 9.22635 8.22413 9.24839C8.25506 9.32229 8.24663 9.40472 8.21666 9.47524C8.20503 9.50398 8.16918 9.53189 8.13972 9.53843L7.89338 9.59456C7.88993 9.59531 7.88636 9.59523 7.88294 9.59433C7.87953 9.59342 7.87637 9.59172 7.87371 9.58935C7.87105 9.58698 7.86896 9.58401 7.86762 9.58068C7.86627 9.57734 7.8657 9.57374 7.86595 9.57014L7.88896 9.27375C7.88972 9.26407 7.89382 9.25498 7.90053 9.24811C7.90724 9.24123 7.91612 9.23702 7.92558 9.23623L8.16918 9.21492ZM10.9716 7.31043C11.0001 7.31017 11.0179 7.34161 11.0038 7.36676L10.4033 8.42674C10.3699 8.48906 10.314 8.53552 10.2476 8.55615L9.12156 8.91724C8.99083 8.95788 8.88046 8.9797 8.74434 8.99036C8.49454 9.00964 7.75269 9.03349 7.75269 9.03349L7.76904 8.99748C7.77676 8.98043 7.79037 8.96702 7.80713 8.95964L8.15815 8.80685C8.18441 8.79542 8.20742 8.77796 8.22499 8.7554L8.76714 8.07116C8.79609 8.03463 8.83393 7.9996 8.87431 7.97777C9.23244 7.78471 9.86936 7.49461 10.3154 7.34187C10.3575 7.32737 10.4142 7.31827 10.4585 7.31775L10.9716 7.31043Z" fill="#B2BFCF"/>
<path fill-rule="evenodd" clip-rule="evenodd" d="M10.3699 6.07945C11.6125 5.96756 13.2939 5.93705 14.9002 6.06168C14.9913 6.06872 15.0807 6.09093 15.1648 6.12742C15.691 6.35427 16.6247 6.85064 17.6629 7.45941C17.7087 7.48633 17.7518 7.51783 17.7914 7.55358C18.0664 7.802 18.7632 8.53285 18.7632 8.53285L18.5459 8.48868C18.5156 8.48264 18.4868 8.47039 18.4612 8.45266C18.0216 8.14994 17.3798 7.7558 16.8418 7.47797C16.778 7.44509 16.7089 7.42428 16.6378 7.41654C16.3763 7.3879 16.0225 7.36275 15.7911 7.35313C15.677 7.3483 15.5993 7.32871 15.4876 7.27061C15.2742 7.15975 14.7574 6.91944 14.4999 6.81867C14.3898 6.77554 14.3336 6.7654 14.2257 6.76717C13.7833 6.77377 12.7756 6.80677 12.2611 6.83946C12.2432 6.8405 12.2262 6.83972 12.2088 6.83697L11.9635 6.79763C12.6591 6.67482 14.3784 6.51772 15.0901 6.47941L14.8005 6.38015C14.7445 6.36121 14.6861 6.35087 14.6272 6.34949C14.3126 6.34216 13.9979 6.33835 13.6832 6.33805H13.5308C12.8554 6.33941 11.9863 6.3564 11.1848 6.41824C11.1148 6.42347 11.0462 6.44098 10.982 6.47001C10.6583 6.61578 9.86878 7.05462 9.07694 7.50541L8.90116 7.60566C8.69642 7.72259 8.49386 7.83885 8.30151 7.9497C8.30151 7.9497 8.4003 7.81951 8.41935 7.79415C8.43621 7.77206 8.44139 7.76801 8.46415 7.75278C8.49599 7.73137 8.60459 7.65804 8.71414 7.58362L8.79526 7.52838C8.84799 7.49256 8.90049 7.45638 8.95276 7.41986C8.96912 7.40843 8.97948 7.40027 9.00005 7.38452C9.23846 7.20034 9.61467 6.87553 9.83892 6.67425C9.88971 6.62888 9.93278 6.57603 9.96813 6.5172C10.0407 6.39688 10.1199 6.26649 10.1687 6.19415C10.2103 6.13147 10.2813 6.08761 10.3699 6.07945Z" fill="#B2BFCF"/>
<path fill-rule="evenodd" clip-rule="evenodd" d="M5.55672 3.56087V3.73705C5.55672 4.0629 5.38514 4.19454 5.07826 4.22728C4.6537 4.2727 4.22918 4.32197 3.80543 4.37524V4.85664C3.71655 4.86776 3.62746 4.87893 3.53857 4.89063V3.3348C4.05113 3.26836 4.56437 3.20762 5.07821 3.15259C5.38514 3.12011 5.55667 3.24239 5.55667 3.56087H5.55672ZM5.16512 3.39462L5.15745 3.39519C4.70642 3.4429 4.25565 3.49497 3.80538 3.55151V4.12422C4.25565 4.06794 4.70642 4.01566 5.15745 3.96821C5.22652 3.96062 5.2958 3.89587 5.2958 3.8281V3.51295C5.2958 3.44425 5.2315 3.39186 5.16512 3.39462ZM19.324 3.10218C20.0011 3.16978 20.6771 3.24726 21.352 3.33459V3.58561C21.0602 3.54777 20.7679 3.51176 20.4753 3.47772V4.78284C20.3864 4.77245 20.2975 4.76226 20.2082 4.75218V3.447C19.9139 3.41374 19.6188 3.38256 19.324 3.35309V3.10218ZM8.0816 2.89768V3.14838C7.52493 3.18367 6.96846 3.2255 6.41255 3.27399V3.65717C6.90711 3.61377 7.40186 3.57599 7.89698 3.54351V3.79452C7.40186 3.82695 6.90706 3.86474 6.41255 3.90792V4.32836C6.96839 4.27966 7.52478 4.23779 8.0816 4.20275V4.45351C7.43756 4.49415 6.7941 4.5438 6.15138 4.60245V3.04636C6.7941 2.98782 7.43757 2.93825 8.0816 2.89768ZM17.2893 2.92948C17.6235 2.95313 17.9572 2.97875 18.2911 3.00718C18.6215 3.03509 18.8396 3.13024 18.8396 3.48629V4.18108C18.8396 4.53052 18.6512 4.59346 18.2911 4.56301C17.9572 4.53484 17.6235 4.50896 17.2893 4.48557C16.9254 4.46047 16.7401 4.38839 16.7401 4.01867V3.32383C16.7401 2.97496 16.9088 2.90313 17.2893 2.92948ZM17.0014 3.3033V4.07272C17.0014 4.14402 17.0611 4.21891 17.1406 4.22447C17.574 4.25389 18.0069 4.28736 18.4398 4.32498C18.5091 4.33106 18.5785 4.26584 18.5785 4.1948V3.42512C18.5785 3.34394 18.5091 3.27664 18.4398 3.27056C18.0071 3.23298 17.574 3.19956 17.1406 3.17031C17.0611 3.16475 17.0014 3.22181 17.0014 3.30336V3.3033ZM14.1511 2.78116C14.7957 2.79691 15.44 2.82175 16.0843 2.85579V3.10649C15.5274 3.07728 14.9702 3.05477 14.4127 3.03898V3.4219C14.9085 3.43614 15.4041 3.45542 15.8994 3.48V3.73102C15.4041 3.70638 14.9085 3.68684 14.4127 3.67286V4.09314C14.9702 4.10884 15.5274 4.13145 16.0843 4.16086V4.41157C15.4402 4.37784 14.7958 4.35298 14.1511 4.33699V2.78116ZM10.7971 2.77981V3.90522C10.7971 4.26122 10.6146 4.33943 10.247 4.35112C9.92696 4.36126 9.60692 4.37347 9.28683 4.38818C8.94577 4.40387 8.73737 4.3374 8.73737 3.98489V2.85953L8.99874 2.84581V4.01872C8.99874 4.09003 9.05842 4.14813 9.13761 4.14434C9.55714 4.12427 9.97648 4.10806 10.3961 4.09564C10.4758 4.09335 10.5287 4.03094 10.5287 3.95958V2.78667C10.6181 2.78412 10.7075 2.78184 10.7971 2.77981ZM11.953 2.76188C12.4335 2.7584 12.9139 2.76016 13.3941 2.76676V3.01747C12.8807 3.01061 12.3671 3.00915 11.8534 3.01341C11.7839 3.01414 11.7143 3.07583 11.7143 3.14713V3.92668C11.7143 3.99804 11.7839 4.06856 11.8535 4.06784C12.3141 4.06373 12.7745 4.06451 13.2351 4.06986V3.64937C12.9678 3.64625 12.7005 3.64475 12.4334 3.64501V3.39404C12.7879 3.39404 13.1424 3.39685 13.4968 3.40215V4.3241C12.9988 4.31646 12.5008 4.31443 12.0027 4.3175C11.6381 4.3201 11.4527 4.2556 11.4527 3.8927V3.21464C11.4527 2.87585 11.6183 2.76443 11.953 2.76193" fill="#B2BFCF"/>
</g>
<defs>
<clipPath id="clip0_3124_144">
<rect width="23" height="26" fill="white" transform="translate(0.945312)"/>
</clipPath>
</defs>
</svg>
