<svg width="27" height="26" viewBox="0 0 27 26" fill="none" xmlns="http://www.w3.org/2000/svg">
<path fill-rule="evenodd" clip-rule="evenodd" d="M12.8561 0.0269058C9.74246 0.323678 6.91688 1.6421 4.75263 3.80793C1.26478 7.29833 0.053125 12.4522 1.61923 17.1364C2.27038 19.0841 3.29452 20.7226 4.79474 22.2168C6.63212 24.047 8.83169 25.2306 11.3693 25.7547C12.9894 26.0893 14.9667 26.0811 16.6148 25.7329C19.1273 25.202 21.3332 24.0003 23.1488 22.1734C23.8469 21.4709 24.2514 20.9802 24.7609 20.2178C28.078 15.2541 27.5739 8.63268 23.5439 4.22947C21.4604 1.95295 18.6969 0.511712 15.613 0.0932147C14.9811 0.00745088 13.447 -0.0294138 12.8561 0.0269058ZM2.64218 10.2104C3.78002 5.54504 7.76315 2.01094 12.5356 1.43233C13.7304 1.28749 15.2936 1.36336 16.4654 1.62307C17.7597 1.9099 19.2416 2.53446 20.3187 3.24712C23.1899 5.14671 25.0294 8.08604 25.5067 11.5368C25.6002 12.2126 25.5874 13.95 25.4839 14.6286C25.0895 17.215 23.9969 19.4005 22.1897 21.2177C21.4076 22.0042 20.6574 22.581 19.6986 23.1332C17.3516 24.4849 14.5235 24.9567 11.7945 24.4517C7.70816 23.6958 4.2841 20.7356 2.93546 16.7929C2.4916 15.4954 2.33217 14.499 2.33037 13.0113C2.32889 11.7765 2.38655 11.2586 2.64218 10.2104Z" fill="#B2BFCF"/>
<path fill-rule="evenodd" clip-rule="evenodd" d="M12.761 3.525C12.2544 3.59474 11.3639 3.79804 11.1623 3.88999C11.0415 3.94507 10.985 4.06318 11.0269 4.17268C11.0416 4.21107 11.2935 4.46284 11.5865 4.73221C12.5292 5.5987 13.4609 6.67591 13.8824 7.38652L14.0022 7.58868L13.8213 7.58763C13.5445 7.58601 13.3113 7.45368 12.6897 6.94542C11.3483 5.84862 9.66926 4.68707 9.42513 4.68707C9.22811 4.68707 8.90917 4.86321 8.35137 5.28C7.8201 5.67699 6.74586 6.6849 6.70004 6.82936C6.65065 6.98519 6.74857 7.08094 7.27818 7.3947C8.24542 7.96764 9.02353 8.51762 9.83177 9.19954C10.2259 9.53204 10.2477 9.55982 10.1645 9.62261C9.99015 9.75413 9.64316 9.66399 8.59863 9.21586C7.00748 8.53312 5.98876 8.18384 5.79749 8.25538C5.64387 8.31289 5.55403 8.44256 5.30282 8.9696C4.9959 9.61347 4.76247 10.3198 4.61426 11.0531C4.49443 11.6458 4.49909 11.7864 4.64259 11.9056C4.67952 11.9362 4.97584 12.017 5.30115 12.085C6.01528 12.2343 6.99869 12.5548 7.54869 12.8175C9.04031 13.5299 10.063 14.7066 10.4989 16.2118C10.7674 17.139 10.7626 17.4605 10.4785 17.5782C10.2815 17.6599 10.1453 17.6157 9.14436 17.1453L8.24281 16.7216H6.73203C5.2541 16.7216 5.21888 16.7238 5.11207 16.8234C5.0277 16.9021 5.00854 16.9598 5.02765 17.0776C5.04205 17.1664 5.33875 17.655 5.7386 18.2483C6.11601 18.8083 6.51595 19.4215 6.62736 19.611C6.88014 20.041 6.94559 20.0653 7.79419 20.0434L8.41212 20.0275L9.03964 19.6589L9.66712 19.2902H14.2307C18.6939 19.2902 18.7954 19.2923 18.8435 19.3822C18.8706 19.4328 18.8927 19.5704 18.8927 19.688C18.8927 20.0914 19.0135 20.1153 19.8434 19.876C20.6402 19.6463 21.4372 19.2188 21.9942 18.7223C22.2936 18.4554 22.2986 18.3141 22.018 18.0496C21.3813 17.4495 20.1483 16.8508 19.324 16.7413C18.9777 16.6954 18.8927 16.7804 18.8927 17.1735C18.8927 17.5296 18.8146 17.6254 18.5241 17.6254C18.3702 17.6254 18.3085 17.599 18.2307 17.5C18.0985 17.3318 18.1063 17.1689 18.2749 16.5788C18.9734 14.1348 19.1282 11.5781 18.7012 9.53893C18.3685 7.95024 17.6563 6.43536 16.655 5.18653C16.2466 4.67713 15.3165 3.76113 15.0463 3.60211C14.836 3.47839 14.8025 3.47382 14.0444 3.46516C13.5711 3.45979 13.0622 3.48352 12.761 3.525ZM16.8052 15.58C16.9286 15.1094 16.6712 14.5428 16.2297 14.3134C15.4447 13.9056 14.5635 14.4348 14.5584 15.3172C14.5552 15.8693 14.8492 16.2666 15.3753 16.4211C15.9999 16.6046 16.6343 16.2314 16.8052 15.58Z" fill="#B2BFCF"/>
</svg>
