<svg width="27" height="26" viewBox="0 0 27 26" fill="none" xmlns="http://www.w3.org/2000/svg">
<path fill-rule="evenodd" clip-rule="evenodd" d="M13.4266 0.00231706C13.396 0.00410013 13.2894 0.0100064 13.1898 0.0154299C11.6118 0.101417 10.0318 0.487247 8.57946 1.14123C8.34287 1.24778 7.84282 1.49914 7.6177 1.62468C6.08342 2.4803 4.74885 3.62405 3.67117 5.00692C2.78787 6.14035 2.08371 7.44671 1.62628 8.80058C1.28449 9.8122 1.07034 10.8444 0.982738 11.9024C0.949473 12.3041 0.945312 12.4259 0.945312 12.9982C0.945312 13.5705 0.949473 13.6923 0.982738 14.0941C1.20759 16.8098 2.28171 19.3884 4.04654 21.4492C4.48416 21.9603 5.02441 22.4988 5.52353 22.9215C7.58305 24.6659 10.1063 25.718 12.7951 25.9533C13.2649 25.9945 14.0372 26.0118 14.4899 25.9915C16.8366 25.8858 18.9921 25.2084 20.9582 23.9586C22.2407 23.1434 23.4247 22.0434 24.354 20.8038C25.2987 19.5436 26.0036 18.1283 26.4377 16.6197C26.6763 15.7904 26.8303 14.95 26.9013 14.0894C26.9348 13.6834 26.9387 13.5697 26.9388 13.0029C26.9389 12.4348 26.9343 12.3001 26.9012 11.9024C26.6863 9.32236 25.7189 6.89053 24.1028 4.86762C23.6322 4.27852 23.0764 3.6988 22.4945 3.19008C21.0753 1.94936 19.3811 1.0254 17.5645 0.501493C16.6555 0.239326 15.7718 0.0881551 14.7175 0.0144363C14.5854 0.00519591 13.545 -0.00456447 13.4266 0.00231706ZM14.4574 1.53832C15.4725 1.5878 16.4636 1.77401 17.425 2.09588C17.5499 2.13769 17.6533 2.17302 17.6549 2.17437C17.6592 2.17825 14.0809 9.89005 14.0675 9.90571C14.061 9.91338 14.0467 9.93732 14.0359 9.95892C14.0158 9.9988 13.9774 10.0264 13.942 10.0264C13.9066 10.0264 13.8682 9.9988 13.8482 9.95892C13.8373 9.93732 13.8231 9.91338 13.8165 9.90571C13.8035 9.89044 10.2247 2.17811 10.2292 2.17494C10.2307 2.17387 10.2821 2.15577 10.3434 2.13474C11.3524 1.78836 12.3558 1.59308 13.4034 1.53916C13.6137 1.52834 14.2424 1.52783 14.4574 1.53832ZM10.4928 7.44798C11.9561 10.6048 12.579 11.9393 12.6085 11.9806C12.6553 12.0462 12.7174 12.0913 12.7812 12.1059C12.8407 12.1196 15.0387 12.1196 15.1026 12.1059C15.1695 12.0915 15.2296 12.0463 15.2811 11.9713C15.3125 11.9256 15.9173 10.6149 17.3697 7.44471C18.4941 4.99044 19.4172 2.97898 19.4211 2.97483C19.4334 2.96141 19.8444 3.2099 20.1808 3.43418C21.3295 4.19999 22.3422 5.16233 23.1359 6.2425C23.2632 6.41577 23.5396 6.82383 23.609 6.9409L23.6489 7.00822L20.7321 12.655C19.1279 15.7607 17.8058 18.3137 17.7941 18.3282C17.7497 18.3834 17.6873 18.4006 17.6485 18.3683C17.6378 18.3594 17.614 18.327 17.5956 18.2964C17.5772 18.2657 17.0589 17.129 16.4438 15.7703C15.6361 13.9861 15.3131 13.2822 15.2812 13.2357C15.229 13.16 15.1688 13.115 15.1004 13.1008C15.0665 13.0938 14.7074 13.0915 13.9141 13.0932L12.7765 13.0957L12.7302 13.1185C12.6743 13.1461 12.6153 13.2049 12.5781 13.2702C12.563 13.2968 12.0491 14.4261 11.4362 15.7796C10.8233 17.1332 10.3068 18.2657 10.2885 18.2964C10.2455 18.3681 10.2249 18.3846 10.1789 18.3846C10.1326 18.3846 10.0999 18.3527 10.0451 18.2539C10.004 18.1797 4.2436 7.11534 4.20949 7.04499L4.18905 7.00281L4.24711 6.91033C5.09956 5.55265 6.2775 4.35225 7.65949 3.43293C7.96461 3.22996 8.39192 2.9678 8.41068 2.97208C8.41523 2.97311 9.35218 4.98727 10.4928 7.44798ZM6.53115 15.7772C8.3776 19.3688 9.90747 22.3368 9.93086 22.3728C10.0203 22.5105 10.1156 22.5633 10.2751 22.5635C10.4471 22.5638 10.5573 22.4889 10.6575 22.3036C10.6755 22.2704 11.3909 20.6845 12.2474 18.7793C13.1039 16.8741 13.8108 15.3035 13.8182 15.2892C13.8425 15.242 13.8959 15.1907 13.9267 15.1849C13.9677 15.1772 14.0049 15.1938 14.0237 15.228C14.0324 15.244 14.0492 15.2718 14.0611 15.2899C14.0729 15.3079 14.7931 16.8798 15.6615 18.783C16.5298 20.6861 17.255 22.2704 17.273 22.3036C17.3783 22.4984 17.4923 22.5709 17.6782 22.5615C17.8285 22.5539 17.9155 22.5029 17.9997 22.3729C18.023 22.3369 19.5529 19.3688 21.3993 15.7772C23.2458 12.1856 24.7591 9.24686 24.7622 9.24668C24.769 9.24629 24.8353 9.43527 24.9005 9.64104C25.19 10.5548 25.3559 11.496 25.4028 12.4921C25.4233 12.9273 25.4055 13.5671 25.36 14.0291C25.1128 16.5407 24.0488 18.8938 22.3094 20.7759C22.0187 21.0905 21.5741 21.514 21.2461 21.789C19.5755 23.189 17.5619 24.0849 15.4465 24.3693C14.8885 24.4443 14.5964 24.4624 13.942 24.4624C13.373 24.4624 13.2028 24.4548 12.7869 24.411C11.3043 24.2548 9.88042 23.8134 8.57424 23.1052C6.63924 22.0559 5.0354 20.468 3.9564 18.5332C3.09799 16.9939 2.61372 15.2925 2.5277 13.5136C2.51557 13.2628 2.52141 12.5198 2.53724 12.3017C2.61104 11.2842 2.78603 10.3951 3.10471 9.41844C3.1356 9.32379 3.16381 9.2465 3.16741 9.24668C3.17102 9.24686 4.68469 12.1856 6.53115 15.7772Z" fill="#B2BFCF"/>
</svg>
