<svg width="53" height="26" viewBox="0 0 53 26" fill="none" xmlns="http://www.w3.org/2000/svg">
<g clip-path="url(#clip0_3124_158)">
<path d="M12.6932 26C11.9234 25.9669 11.1644 25.9124 10.4433 25.5994C9.63093 25.2471 9.10691 24.6466 8.90916 23.749C8.76134 23.0795 8.75401 22.4121 8.87719 21.7372C9.05231 20.7816 9.55369 20.0818 10.4273 19.7426C11.9467 19.1525 13.4942 19.1642 15.0083 19.7509C15.9352 20.1101 16.4339 20.8754 16.5584 21.893C16.6556 22.6879 16.6603 23.4821 16.3473 24.2281C15.9092 25.2726 15.0343 25.7028 14.0142 25.8738C13.5787 25.9469 13.1333 25.96 12.6925 26.0006L12.6932 26ZM12.7684 24.7879C12.9089 24.7741 13.1186 24.7597 13.3271 24.7307C14.2492 24.6039 14.7373 24.1412 14.9351 23.2126C15.1701 22.1109 14.7413 21.0615 13.9143 20.7471C13.2418 20.4921 12.5547 20.4707 11.8555 20.6327C11.1517 20.7954 10.6623 21.2111 10.5132 21.9433C10.3467 22.7596 10.3414 23.5814 10.9673 24.2288C11.44 24.7183 12.0733 24.759 12.7691 24.7872L12.7684 24.7879Z" fill="#B2BFCF"/>
<path d="M6.29674 24.4342C6.15558 24.3363 6.01975 24.2281 5.8726 24.1412C4.60416 23.3925 3.33239 22.6479 2.06395 21.8991C1.95875 21.8371 1.85887 21.7626 1.76499 21.6827C1.39544 21.3655 1.14042 20.9843 1.25561 20.4603C1.36415 19.9667 1.7317 19.6992 2.17115 19.6171C2.82169 19.4958 3.48487 19.3944 4.14406 19.3903C5.26068 19.3827 6.37798 19.4599 7.49527 19.4958C7.74496 19.504 7.84351 19.6088 7.76427 19.8646C7.75761 19.886 7.75628 19.9094 7.75162 19.9322C7.60513 20.6678 7.57117 20.6464 6.84806 20.6216C5.77672 20.5851 4.70271 20.6196 3.63003 20.6368C3.51284 20.6389 3.39698 20.725 3.28046 20.7719C3.37035 20.876 3.44226 21.0153 3.55345 21.0794C4.81124 21.8019 6.07835 22.5072 7.33613 23.2298C7.78558 23.4883 8.16045 23.822 8.15046 24.4252C8.14181 24.9699 7.86015 25.3539 7.31416 25.5856C6.5997 25.8882 5.84064 25.9379 5.09289 25.913C3.81114 25.871 2.53204 25.7496 1.25162 25.658C0.989941 25.6393 0.884738 25.5208 0.964639 25.225C1.17372 24.4514 1.19436 24.4487 1.96075 24.5466C3.26914 24.7141 4.58152 24.8527 5.90056 24.6659C6.03107 24.6472 6.15558 24.5852 6.28276 24.5431C6.28742 24.5066 6.29208 24.4707 6.29674 24.4342Z" fill="#B2BFCF"/>
<path d="M38.8927 22.8541C39.5812 23.6449 40.239 24.4012 40.8962 25.1575C40.9408 25.2085 40.9921 25.2596 41.0174 25.3202C41.0633 25.4312 41.092 25.5491 41.1279 25.6643C41.0194 25.6994 40.9115 25.7622 40.8017 25.7649C40.3922 25.7773 39.9807 25.7904 39.5732 25.7594C39.42 25.7477 39.2289 25.6539 39.1344 25.5319C38.4892 24.7032 37.8726 23.8504 37.2281 23.021C37.0536 22.7969 37.0496 22.6631 37.278 22.4942C37.8273 22.0882 38.3693 21.6717 38.906 21.2477C39.0012 21.1726 39.0538 21.0402 39.1264 20.9347C39.0132 20.8816 38.9007 20.7858 38.7861 20.7831C37.8573 20.7576 36.9278 20.7341 35.9982 20.7417C35.5162 20.7458 35.5142 20.7741 35.5142 21.2926C35.5135 22.6225 35.5148 23.9524 35.5142 25.2823C35.5142 25.7415 35.4875 25.7677 35.0434 25.7711C34.7884 25.7732 34.534 25.7704 34.279 25.7725C34.0673 25.7746 33.9474 25.6912 33.9474 25.4505C33.9501 23.6049 33.9494 21.7586 33.9454 19.913C33.9454 19.6903 34.06 19.6034 34.2491 19.5883C36.1068 19.4407 37.9645 19.3676 39.8182 19.6434C39.9168 19.6579 40.0146 19.682 40.1098 19.7117C40.53 19.8434 40.9102 20.0364 40.9828 20.5438C41.0527 21.0319 40.7917 21.3767 40.4441 21.6531C40.0319 21.9813 39.6051 22.2895 39.1863 22.6094C39.0804 22.69 38.9819 22.7804 38.8927 22.8555V22.8541Z" fill="#B2BFCF"/>
<path d="M49.9154 19.4869C50.6785 19.5262 51.4415 19.5579 52.2039 19.6082C52.5954 19.6344 52.6107 19.6744 52.5195 20.0819C52.5022 20.1598 52.4776 20.237 52.4649 20.3156C52.4103 20.6651 52.2199 20.7589 51.881 20.7472C50.8522 20.712 49.8228 20.7162 48.7934 20.7093C48.6277 20.7086 48.4599 20.7189 48.2974 20.7499C48.2102 20.7665 48.1329 20.8375 48.051 20.8844C48.1043 20.963 48.1416 21.0691 48.2148 21.1153C48.4978 21.2946 48.7895 21.4587 49.0818 21.6221C50.0652 22.1716 51.0507 22.7155 52.0328 23.2671C52.1779 23.3484 52.3158 23.4484 52.4463 23.5532C53.1707 24.1351 53.0908 25.1892 52.2492 25.5656C51.7824 25.7745 51.2544 25.8842 50.7444 25.9331C49.1823 26.0834 47.6249 25.9407 46.0728 25.7435C45.7132 25.698 45.664 25.6036 45.7645 25.2375C45.7798 25.1823 45.7945 25.1272 45.8124 25.0727C45.9836 24.5508 45.9822 24.5784 46.5196 24.6128C47.7447 24.6914 48.9712 24.7452 50.1977 24.7969C50.3941 24.8052 50.5952 24.7625 50.789 24.719C50.8729 24.7004 50.9441 24.6197 51.0214 24.5667C50.9621 24.4915 50.9175 24.3909 50.8416 24.3453C50.2004 23.9606 49.5525 23.587 48.908 23.2092C48.2148 22.8024 47.5144 22.4094 46.8352 21.9792C46.5882 21.8227 46.3531 21.6055 46.1847 21.3628C45.8291 20.8492 45.9929 20.1722 46.5522 19.9137C46.9284 19.7399 47.3486 19.6124 47.7574 19.5827C48.4732 19.5303 49.195 19.5682 49.9147 19.5682C49.9147 19.5407 49.9147 19.5138 49.9154 19.4862V19.4869Z" fill="#B2BFCF"/>
<path d="M31.963 25.7786C30.863 25.7586 31.1313 25.942 30.6666 24.9154C30.1126 23.6917 29.5573 22.4693 28.9919 21.2511C28.9314 21.1201 28.8015 21.0229 28.7043 20.9105C28.6111 21.0167 28.4879 21.1077 28.43 21.2318C27.9119 22.3459 27.4039 23.4656 26.8965 24.5852C26.7647 24.8755 26.6728 25.1885 26.5123 25.4594C26.4291 25.6 26.244 25.7428 26.0915 25.7593C25.708 25.8021 25.3171 25.7848 24.9296 25.7717C24.6273 25.7614 24.5674 25.6331 24.7046 25.3429C25.5662 23.52 26.5177 21.7496 27.5903 20.0494C27.9193 19.5282 28.3321 19.2083 28.974 19.3379C29.3435 19.4131 29.5952 19.6578 29.767 19.9674C30.7485 21.7337 31.7193 23.5069 32.6814 25.2857C32.8931 25.6773 32.8126 25.78 32.3658 25.7793C32.2107 25.7793 32.0555 25.7793 31.9636 25.7793L31.963 25.7786Z" fill="#B2BFCF"/>
<path d="M17.7024 22.2232C17.7024 21.4897 17.7097 20.7561 17.6984 20.0225C17.6937 19.7295 17.7949 19.6013 18.0866 19.6213C18.3516 19.6392 18.6186 19.6371 18.8836 19.622C19.1772 19.6047 19.2671 19.7371 19.2645 20.0301C19.2538 21.3711 19.2578 22.712 19.2585 24.0537C19.2585 24.5032 19.2931 24.5349 19.7359 24.5383C20.9317 24.5466 22.1276 24.5556 23.3235 24.5638C23.7856 24.5673 23.8049 24.6321 23.6497 25.0933C23.4753 25.6118 23.183 25.8062 22.637 25.7841C21.4977 25.738 20.3558 25.7724 19.2152 25.7697C18.1052 25.7669 17.7031 25.3443 17.7011 24.1833C17.6997 23.5297 17.7011 22.8768 17.7011 22.2232H17.7024Z" fill="#B2BFCF"/>
<path d="M44.4704 22.6852C44.4704 23.5794 44.4638 24.4736 44.4738 25.3678C44.4771 25.6622 44.3725 25.7897 44.0836 25.7732C43.8299 25.7587 43.5735 25.7573 43.3198 25.7732C43.0169 25.7918 42.9084 25.6601 42.9103 25.3498C42.919 23.8255 42.9137 22.3005 42.913 20.7761C42.913 20.5128 42.9223 20.2487 42.911 19.9853C42.8997 19.7151 43.0189 19.6137 43.2699 19.6234C43.5356 19.6337 43.8026 19.6399 44.0669 19.622C44.3679 19.602 44.4804 19.7206 44.4758 20.0377C44.4611 20.9202 44.4704 21.8027 44.4698 22.6859L44.4704 22.6852Z" fill="#B2BFCF"/>
<path d="M28.7212 23.7573C29.2419 23.7628 29.6767 24.2157 29.672 24.7473C29.6674 25.2651 29.1973 25.7401 28.6999 25.7297C28.1805 25.7187 27.7657 25.272 27.7677 24.7245C27.7697 24.1675 28.1799 23.7511 28.7219 23.7573H28.7212Z" fill="#B2BFCF"/>
<path d="M45.1868 6.23728C44.8253 4.93287 43.9264 4.0821 42.8717 3.37888C41.3629 2.3723 39.6789 1.80145 37.9591 1.34573C35.7331 0.755575 33.4633 0.424646 31.1774 0.207474C27.7663 -0.116561 24.3598 -0.0600271 20.9593 0.37156C20.5079 0.428783 20.0584 0.503242 19.5464 0.57908C22.5886 4.26549 25.5736 7.88365 28.5979 11.5494C28.4428 11.5611 28.3682 11.5708 28.2936 11.5721C25.2733 11.6376 22.267 11.4846 19.29 10.9227C17.2912 10.5456 15.3249 10.0485 13.4998 9.08465C12.8473 8.73993 12.2201 8.35247 11.7833 7.7106C11.5928 7.43069 11.5922 7.17353 11.7853 6.89017C12.2294 6.23866 12.8653 5.84568 13.5271 5.49682C15.0592 4.6895 16.7006 4.22137 18.3765 3.86562C18.5097 3.83735 18.6408 3.79737 18.8146 3.75255C18.1188 2.90386 17.4649 2.09722 16.7971 1.30368C16.7398 1.23542 16.5807 1.20785 16.4848 1.23198C14.9947 1.60151 13.5491 2.10825 12.1815 2.82871C11.2692 3.30924 10.413 3.88148 9.73446 4.69225C8.83224 5.76984 8.47534 6.99014 8.87818 8.39452C9.1898 9.48038 9.89094 10.2622 10.7465 10.9103C12.0236 11.8782 13.4772 12.4636 14.978 12.9296C17.5029 13.7135 20.0984 14.1113 22.7145 14.3754C25.9691 14.7042 29.2218 14.6629 32.4678 14.2437C33.1117 14.1603 33.7556 14.0748 34.4733 13.9803C31.4464 10.3105 28.4694 6.70127 25.4538 3.04588C25.6349 3.03761 25.7428 3.02451 25.8506 3.02796C27.7763 3.09759 29.7045 3.11827 31.6255 3.25409C33.952 3.41887 36.2392 3.867 38.4598 4.62055C39.651 5.02456 40.8135 5.50234 41.795 6.3469C42.6093 7.04737 42.6207 7.51411 41.8103 8.23182C40.8488 9.08396 39.6956 9.56587 38.511 9.95403C37.4583 10.2987 36.3817 10.5662 35.265 10.882C35.9289 11.6914 36.5748 12.4891 37.2373 13.2702C37.2992 13.3433 37.479 13.3585 37.5895 13.3323C38.9205 13.0199 40.2216 12.607 41.4634 12.0147C42.5467 11.4984 43.5675 10.8786 44.3512 9.92024C45.2334 8.84266 45.569 7.62098 45.1855 6.23659L45.1868 6.23728Z" fill="#B2BFCF"/>
</g>
<defs>
<clipPath id="clip0_3124_158">
<rect width="52" height="26" fill="white" transform="translate(0.938721)"/>
</clipPath>
</defs>
</svg>
