<svg width="65" height="22" viewBox="0 0 65 22" fill="none" xmlns="http://www.w3.org/2000/svg">
<path d="M53.2852 19.538C51.3176 19.538 49.5039 18.8762 48.0536 17.767C49.5254 15.8994 50.4064 13.5507 50.4064 11C50.4064 8.44954 49.5254 6.10082 48.0536 4.23302C49.5039 3.124 51.3176 2.46202 53.2852 2.46202C58.0241 2.46202 61.8796 6.29222 61.8796 11C61.8796 15.708 58.0241 19.538 53.2852 19.538ZM34.1019 17.767C35.5739 15.8994 36.4548 13.5507 36.4548 11C36.4548 8.44954 35.5739 6.10082 34.1021 4.23302C35.5522 3.124 37.3663 2.46202 39.3337 2.46202C41.3013 2.46202 43.115 3.124 44.5653 4.23302C43.0935 6.10082 42.2126 8.44954 42.2126 11C42.2126 13.5507 43.0935 15.8994 44.5653 17.767C43.115 18.8762 41.3013 19.538 39.3337 19.538C37.3663 19.538 35.5522 18.8762 34.1019 17.767ZM20.1503 17.767C21.6223 15.8994 22.5032 13.5507 22.5032 11C22.5032 8.44954 21.6223 6.10082 20.1505 4.23302C21.6006 3.124 23.4147 2.46202 25.3821 2.46202C27.3495 2.46202 29.1637 3.124 30.6137 4.23302C29.142 6.10082 28.261 8.44954 28.261 11C28.261 13.5507 29.142 15.8994 30.6137 17.767C29.1637 18.8762 27.3495 19.538 25.3821 19.538C23.4147 19.538 21.6006 18.8762 20.1503 17.767ZM2.83619 11C2.83619 6.29222 6.6917 2.46202 11.4306 2.46202C13.398 2.46202 15.2121 3.124 16.6622 4.23302C15.1904 6.10082 14.3095 8.44954 14.3095 11C14.3095 13.5507 15.1904 15.8994 16.6622 17.767C15.2121 18.8762 13.398 19.538 11.4306 19.538C6.6917 19.538 2.83619 15.708 2.83619 11ZM18.4064 15.9779C17.3892 14.5754 16.7878 12.8568 16.7878 11C16.7878 9.14342 17.3892 7.42456 18.4064 6.02206C19.4235 7.42456 20.025 9.14342 20.025 11C20.025 12.8568 19.4235 14.5754 18.4064 15.9779ZM32.3579 15.9779C31.3408 14.5754 30.7393 12.8568 30.7393 11C30.7393 9.14342 31.3408 7.42456 32.3579 6.02206C33.375 7.42456 33.9765 9.14342 33.9765 11C33.9765 12.8568 33.375 14.5754 32.3579 15.9779ZM46.3095 15.9779C45.2923 14.5754 44.6909 12.8568 44.6909 11C44.6909 9.14342 45.2923 7.42456 46.3095 6.02206C47.3266 7.42456 47.9281 9.14342 47.9281 11C47.9281 12.8568 47.3266 14.5754 46.3095 15.9779ZM53.2852 0C50.6429 0 48.2149 0.925539 46.3095 2.46554C44.4041 0.925539 41.9761 0 39.3337 0C36.6913 0 34.2633 0.925539 32.3579 2.46554C30.4525 0.925539 28.0243 0 25.3821 0C22.7397 0 20.3117 0.925539 18.4064 2.46554C16.501 0.925539 14.0727 0 11.4306 0C5.32511 0 0.35791 4.9346 0.35791 11C0.35791 17.0656 5.32511 22 11.4306 22C14.0727 22 16.501 21.0747 18.4064 19.5345C20.3117 21.0747 22.7397 22 25.3821 22C28.0243 22 30.4525 21.0747 32.3579 19.5345C34.2633 21.0747 36.6913 22 39.3337 22C41.9761 22 44.4041 21.0747 46.3095 19.5345C48.2149 21.0747 50.6429 22 53.2852 22C59.3907 22 64.3579 17.0656 64.3579 11C64.3579 4.9346 59.3907 0 53.2852 0Z" fill="#DF1B2A"/>
</svg>
