<svg width="34" height="30" viewBox="0 0 34 30" fill="none" xmlns="http://www.w3.org/2000/svg">
<path d="M16.8862 0.449951C3.08622 0.449951 -0.713777 5.44995 0.186223 15.35C1.08622 25.25 4.68622 29.5499 16.8862 29.5499C29.0862 29.5499 32.6862 25.25 33.5862 15.35C34.4862 5.44995 30.7862 0.449951 16.8862 0.449951ZM23.8862 2.74995C21.1862 9.44995 18.1862 15.75 17.2862 17.75C17.1862 18.0499 16.7862 18.0499 16.5862 17.75C15.5862 15.75 12.5862 9.44995 9.88622 2.64995C9.88622 2.54995 9.88622 2.44995 9.98622 2.44995C11.8862 2.04995 14.1862 1.84995 16.8862 1.84995C19.5862 1.84995 21.8862 2.04995 23.7862 2.44995C23.8862 2.54995 23.9862 2.64995 23.8862 2.74995ZM1.68622 15.25C1.28622 10.65 1.98622 7.54995 3.78622 5.54995C4.78622 4.44995 6.18622 3.64995 8.08622 3.04995C8.18622 3.04995 8.28622 3.04995 8.28622 3.14995V12.25C8.28622 13.75 8.68622 15.2499 9.38622 16.5499L15.4862 27.85C15.5862 27.95 15.4862 28.0499 15.3862 28.0499C10.5862 27.8499 7.38622 26.9499 5.38622 25.0499C3.28622 23.15 2.18622 20.15 1.68622 15.25ZM32.0862 15.25C31.6862 20.15 30.4862 23.25 28.4862 25.0499C26.4862 26.9499 23.2862 27.8499 18.4862 28.0499C18.3862 28.0499 18.2862 27.95 18.3862 27.85L24.4862 16.5499C25.1862 15.2499 25.5862 13.75 25.5862 12.25V3.14995C25.5862 3.04995 25.6862 2.94995 25.7862 3.04995C27.6862 3.64995 29.0862 4.44995 30.0862 5.54995C31.8862 7.54995 32.5862 10.65 32.0862 15.25Z" fill="#B2BFCF"/>
</svg>
