<svg width="26" height="22" viewBox="0 0 26 22" fill="none" xmlns="http://www.w3.org/2000/svg">
<path d="M24.5971 9.32675C24.2486 8.9452 16.0475 0 13.0786 0C10.1106 0 1.90867 8.9452 1.56099 9.32631C1.52698 9.36389 0.725582 10.2685 0.725582 11.323C0.725582 12.1436 0.781068 12.9695 0.781515 12.9774C0.783305 13.0155 0.802545 13.3643 0.998533 13.4594C1.0303 13.4748 1.06476 13.4823 1.10011 13.4823C1.17304 13.4823 1.25403 13.4501 1.34218 13.3864L1.3451 13.3839C1.54344 13.2112 9.80836 6.0174 13.0786 6.0174C16.3715 6.0174 24.7269 13.309 24.8106 13.3829C24.9014 13.4492 24.9837 13.4819 25.0576 13.4819C25.0934 13.4819 25.1269 13.4744 25.1591 13.4589C25.3547 13.3643 25.3744 13.015 25.3757 12.9757C25.3762 12.9695 25.4312 12.1436 25.4312 11.323C25.4316 10.2685 24.6311 9.36434 24.5971 9.32675Z" fill="#B2BFCF"/>
<path d="M24.6088 17.84C24.2602 17.458 16.0506 8.50395 13.0786 8.50395C10.1075 8.50395 1.89748 17.458 1.54936 17.8395C1.51535 17.8771 0.713501 18.7826 0.713501 19.838C0.713501 20.6595 0.768538 21.4862 0.769433 21.4942C0.771223 21.5322 0.790464 21.8815 0.986899 21.9766C1.01867 21.992 1.05312 22 1.08847 22C1.16141 22 1.24285 21.9677 1.331 21.9041C1.41959 21.8267 9.78307 14.5275 13.0786 14.5275C16.3746 14.5275 24.7385 21.8267 24.8222 21.9005C24.9135 21.9668 24.9958 22 25.0697 22C25.1054 22 25.139 21.992 25.1712 21.977C25.3672 21.8824 25.3865 21.5327 25.3882 21.4933C25.3887 21.4871 25.4437 20.6603 25.4437 19.8389C25.4437 18.7826 24.6423 17.8776 24.6088 17.84Z" fill="#B2BFCF"/>
</svg>
