<svg width="25" height="26" viewBox="0 0 25 26" fill="none" xmlns="http://www.w3.org/2000/svg">
<path fill-rule="evenodd" clip-rule="evenodd" d="M9.10794 0.311468C5.2835 0.933008 1.88762 2.26804 1.15369 3.43858C0.457986 4.54843 0.585254 6.72728 1.54745 10.18C1.91538 11.4996 2.06571 11.7779 2.34096 11.6483C5.62217 10.1039 9.254 9.55356 17.4147 9.36475L23.6073 9.22125L23.8537 7.99379C24.1653 6.44117 24.2016 4.61828 23.9355 3.88716C23.4062 2.43162 19.9364 0.936133 15.6338 0.309013C12.8023 -0.103636 11.661 -0.103189 9.10794 0.311468ZM5.86859 4.32726C6.43104 4.91533 6.29224 6.1506 5.57989 6.89511C5.02448 7.47558 4.81008 7.54744 3.63499 7.54744C2.37448 7.54744 2.31917 7.52446 2.42573 7.0453C2.48701 6.76901 2.65678 5.96581 2.80305 5.25991L3.0689 3.97666H4.30101C5.13616 3.97666 5.64096 4.08958 5.86859 4.32726ZM8.24547 4.35717C8.16859 4.56628 8.04709 5.1847 7.97534 5.73103C7.78935 7.1493 8.2412 6.74781 8.57239 5.20032C8.82714 4.01058 8.85448 3.97666 9.56235 3.97666C10.1562 3.97666 10.2692 4.04852 10.1769 4.36721C10.1146 4.58191 9.97255 5.19184 9.8613 5.72233C9.75026 6.25259 9.49316 6.87837 9.2903 7.1127C8.82031 7.65546 7.75604 7.86725 7.00268 7.56775C6.33837 7.30374 6.28029 6.89957 6.64885 5.10346C6.87349 4.00879 6.90147 3.97666 7.63262 3.97666C8.25401 3.97666 8.36078 4.04294 8.24547 4.35717ZM13.34 4.11212C13.5258 4.18666 13.6778 4.48795 13.6778 4.78165C13.6778 5.22286 13.5696 5.3157 13.055 5.3157C12.7124 5.3157 12.3881 5.19028 12.3343 5.03673C12.182 4.60266 11.7853 5.10703 11.6266 5.93635C11.4938 6.6302 11.7754 6.94019 12.0763 6.43157C12.2134 6.19969 13.4643 6.11243 13.4643 6.33471C13.4643 7.09864 11.967 7.94157 11.1131 7.65836C9.32063 7.0636 10.2275 3.97666 12.1948 3.97666C12.639 3.97666 13.1543 4.03758 13.34 4.11212ZM16.9723 4.4788C17.0272 4.75509 17.132 5.55829 17.2053 6.26419L17.3387 7.54744H16.576C16.1564 7.54744 15.8132 7.44701 15.8132 7.32427C15.8132 7.20152 15.573 7.10109 15.2794 7.10109C14.9858 7.10109 14.7455 7.20152 14.7455 7.32427C14.7455 7.44701 14.4092 7.54744 13.9984 7.54744H13.2512L14.1585 5.76629L15.0658 3.98536L15.9693 3.9809C16.7359 3.97733 16.888 4.05276 16.9723 4.4788ZM20.6861 4.4788C20.6421 4.80173 20.4702 4.98116 20.2042 4.98183C19.7976 4.9825 19.7577 5.074 19.3547 6.93371C19.242 7.45349 19.1122 7.54744 18.5063 7.54744H17.7912L18.0697 6.29544C18.3321 5.11485 18.3244 5.03673 17.9347 4.93028C17.5256 4.81847 17.3891 4.41274 17.6639 4.12551C17.7421 4.04361 18.4696 3.97666 19.2802 3.97666C20.6868 3.97666 20.751 3.99964 20.6861 4.4788ZM22.3671 4.4788C22.3054 4.75509 22.1442 5.55829 22.0086 6.26419C21.7649 7.53271 21.7534 7.54744 21.0154 7.54744C20.4077 7.54744 20.2879 7.47491 20.3712 7.15689C20.4275 6.94219 20.5909 6.21398 20.7342 5.53888C21.0679 3.96483 21.0596 3.97666 21.8279 3.97666C22.3942 3.97666 22.4645 4.04227 22.3671 4.4788ZM4.162 5.64645C4.01039 6.49116 4.15324 6.88149 4.48487 6.52821C4.7898 6.20327 4.84574 5.03874 4.56131 4.9343C4.40906 4.87828 4.2487 5.16439 4.162 5.64645ZM15.6385 5.65046C15.4389 6.10864 15.4517 6.2084 15.7109 6.2084C15.9055 6.2084 16.0268 5.99393 16.0268 5.65046C16.0268 5.3436 15.9941 5.09253 15.9544 5.09253C15.9144 5.09253 15.7722 5.3436 15.6385 5.65046ZM19.9772 10.6942C11.0868 11.4563 5.9476 13.4587 4.79642 16.6088L4.43148 17.6072L5.41909 19.1052C7.44193 22.1734 10.8109 25.6933 11.9819 25.9622C12.8679 26.1655 13.7727 25.5757 15.7152 23.5285C18.8076 20.2697 21.0671 16.6282 22.4455 12.6807C23.0968 10.8154 23.1017 10.4257 22.4737 10.48C22.2751 10.4971 21.1516 10.5935 19.9772 10.6942Z" fill="#B2BFCF"/>
</svg>
