<svg width="42" height="26" viewBox="0 0 42 26" fill="none" xmlns="http://www.w3.org/2000/svg">
<path d="M17.1769 16.6047L14.6427 17.7987L7.66265 17.8262L8.67631 20.0855C8.67631 20.0855 8.99641 20.71 9.71665 20.6549H14.6427L17.1502 19.4977L17.1769 16.6047ZM23.2855 21.1416C22.4675 20.9855 22.5297 20.1773 22.5297 20.1773V3.76545L20.3423 3.74709L17.2124 5.2349V6.86966C18.6173 6.10738 18.6618 7.38396 18.6618 7.38396L18.7507 20.2967C18.7507 21.1416 18.0394 21.1692 18.0394 21.1692L17.0702 21.1508L17.0524 22.4917H24.2103L24.1925 21.1968L23.2855 21.1416ZM17.1502 12.5087H5.4397L6.4178 15.0251C6.79125 15.6496 7.16471 15.5578 7.16471 15.5578H17.1413V12.5087H17.1502ZM5.69756 11.4525H17.2302V8.40339H3.97256L4.95065 10.9198C5.32411 11.5443 5.69756 11.4525 5.69756 11.4525ZM26.7711 8.53197V8.06358L24.0235 8.04521V11.526L35.2272 11.4617C36.2408 11.3974 36.2853 10.929 36.2853 10.929L37.2545 8.58707L26.7711 8.53197ZM26.5577 16.6598L24.0235 16.7058V19.4059L26.5132 19.3875L28.1315 20.6641L31.7683 20.6824C32.5685 20.5722 32.5863 20.0579 32.5863 20.0579L33.5822 17.8905H28.176L26.5577 16.6598ZM24.0413 15.4751L33.7956 15.4567C34.3558 15.4751 34.6581 14.9608 34.6581 14.9608L35.7429 12.6189L24.0235 12.5729L24.0413 15.4751ZM20.618 0C9.28984 0 0.113525 5.82268 0.113525 12.9954C0.113525 20.1773 9.28984 25.9908 20.618 25.9908C31.9461 25.9908 41.1224 20.1681 41.1224 12.9954C41.1135 5.82268 31.9372 0 20.618 0ZM20.618 24.4755C10.3391 24.4755 2.00747 19.3324 2.00747 12.9954C2.00747 6.65842 10.3391 1.51537 20.618 1.51537C30.8969 1.51537 39.2285 6.65842 39.2285 12.9954C39.2285 19.3416 30.888 24.4755 20.618 24.4755Z" fill="#B2BFCF"/>
</svg>
