<svg width="75" height="8" viewBox="0 0 75 8" fill="none" xmlns="http://www.w3.org/2000/svg">
<path d="M10.7545 0.496094H8.80003C8.80003 0.496094 8.69146 0.496093 8.69146 0.604743V5.9829H2.23086V4.84209C2.23086 4.84209 2.23086 4.73343 2.12228 4.73343H0.222107C0.222107 4.73343 0.113525 4.73343 0.113525 4.84209V6.6348C0.113525 7.12373 0.49356 7.39535 0.873594 7.39535H10.1573C10.5373 7.39535 10.9174 7.01508 10.9174 6.6348L10.7545 0.496094C10.8631 0.496094 10.8631 0.496094 10.7545 0.496094Z" fill="#B2BFCF"/>
<path d="M23.3986 1.90854L23.5072 0.604743C23.5072 0.604743 23.5072 0.496094 23.3986 0.496094H13.5177C13.029 0.496094 12.7576 0.876368 12.7576 1.25664V6.6348C12.7576 7.12373 13.1376 7.39535 13.5177 7.39535H23.3986C23.3986 7.39535 23.5072 7.39535 23.5072 7.2867V5.9829C23.5072 5.9829 23.5072 5.87425 23.3986 5.87425H14.8749V4.73343H22.9099C22.9099 4.73343 23.0186 4.73343 23.0186 4.62478V3.32098C23.0186 3.32098 23.0186 3.21234 22.9099 3.21234H14.8749V1.90854H23.3986Z" fill="#B2BFCF"/>
<path d="M36.3138 0.496094H25.4556C25.4556 0.496094 25.347 0.496093 25.347 0.604743V1.90854C25.347 1.90854 25.347 2.01719 25.4556 2.01719H29.7989V7.39535C29.7989 7.39535 29.7989 7.504 29.9075 7.504H31.8619C31.8619 7.504 31.9705 7.504 31.9705 7.39535V1.90854H36.3138C36.3138 1.90854 36.4223 1.90854 36.4223 1.79989L36.3138 0.496094C36.4223 0.496094 36.4223 0.496094 36.3138 0.496094Z" fill="#B2BFCF"/>
<path d="M48.5778 0.496094H39.0227C38.6426 0.496094 38.2626 0.876368 38.2626 1.25664V6.6348C38.2626 7.12373 38.6426 7.39535 39.0227 7.39535H48.6321C49.1207 7.39535 49.3922 7.01508 49.3922 6.6348V1.25664C49.3379 0.876368 48.9578 0.496094 48.5778 0.496094ZM40.2713 5.92858V1.85421H47.1663V5.92858H40.2713Z" fill="#B2BFCF"/>
<path d="M61.9276 0.496094H59.9731C59.9731 0.496094 59.8645 0.496093 59.8645 0.604743V5.9829H53.4039V0.604743C53.4039 0.604743 53.4039 0.496094 53.2954 0.496094H51.3409C51.3409 0.496094 51.2323 0.496093 51.2323 0.604743V6.74345C51.2323 7.23237 51.6123 7.504 51.9923 7.504H61.1675C61.6561 7.504 61.9276 7.12373 61.9276 6.74345V0.496094Z" fill="#B2BFCF"/>
<path d="M74.9454 7.2867L70.8738 4.57046H73.9686C74.3484 4.57046 74.7282 4.19019 74.7282 3.80991V1.25664C74.7282 0.767718 74.3484 0.496094 73.9686 0.496094H63.9246C63.9246 0.496094 63.816 0.496093 63.816 0.604743V7.39535C63.816 7.39535 63.816 7.504 63.9246 7.504H65.879C65.879 7.504 65.9876 7.504 65.9876 7.39535V3.42963L71.9053 7.39535H72.0139H74.8372C74.9454 7.34102 74.9454 7.34102 74.9454 7.2867ZM66.0419 1.90854H72.6111V3.15801H66.0419V1.90854Z" fill="#B2BFCF"/>
</svg>
