<svg width="27" height="26" viewBox="0 0 27 26" fill="none" xmlns="http://www.w3.org/2000/svg">
<path fill-rule="evenodd" clip-rule="evenodd" d="M26.9453 13C26.9453 5.85 21.0953 0 13.9453 0C6.79531 0 0.945312 5.85 0.945312 13C0.945312 20.15 6.79531 26 13.9453 26C21.0953 26 26.9453 20.15 26.9453 13ZM13.9453 23.8875C16.8297 23.8875 19.5922 22.75 21.6234 20.7188C22.1906 20.1516 22.6847 19.5358 23.1032 18.8812L23.1266 18.8906L17.1128 16.4691L13.9256 15.1782L4.79327 18.9031C5.204 19.5393 5.68332 20.1349 6.22656 20.6781C8.29844 22.75 11.0609 23.8875 13.9453 23.8875ZM4.10794 17.6724C4.16601 17.7948 4.2264 17.9162 4.28905 18.0364L12.0359 11.9438L13.4503 2.20493C10.7464 2.32718 8.18193 3.44776 6.26719 5.3625C4.19531 7.35313 3.05781 10.1156 3.05781 13C3.05781 14.6225 3.41772 16.2064 4.09417 17.6432C4.09874 17.653 4.10333 17.6627 4.10794 17.6724ZM24.7922 13.0406C24.7922 10.1562 23.6547 7.39375 21.6234 5.3625C19.6607 3.39971 17.1145 2.31196 14.3995 2.20285L15.6516 10.725L15.8141 11.9031L23.5821 18.0528C24.3794 16.5182 24.7922 14.81 24.7922 13.0406Z" fill="#B2BFCF"/>
</svg>
