<svg width="33" height="32" viewBox="0 0 33 32" fill="none" xmlns="http://www.w3.org/2000/svg">
<path fill-rule="evenodd" clip-rule="evenodd" d="M9.75934 1.34837C9.85386 2.29157 10.1442 6.60025 10.1151 6.62914C10.0959 6.64836 9.64539 6.51467 9.11406 6.33218C7.46442 5.76542 5.61437 5.12185 5.00795 4.90383C4.68877 4.78907 4.42756 4.70901 4.42756 4.72597C4.42756 4.75099 5.48084 8.11448 6.06755 9.96302C6.14517 10.2077 6.31351 10.7414 6.44155 11.1492C8.92969 19.0709 9.40015 20.514 9.59325 20.8166C9.71987 21.0149 9.85333 21.1272 10.113 21.254C10.3883 21.3883 13.7852 22.5675 15.6783 23.1858C15.8584 23.2447 16.0539 23.3128 16.1129 23.3374C16.2463 23.3928 16.246 23.3913 15.8209 22.0753C15.646 21.5335 15.5135 21.0796 15.5267 21.0663C15.5401 21.0532 15.6666 21.1215 15.808 21.2181C16.2333 21.5088 16.8669 21.8841 16.932 21.8841C16.9655 21.8841 17.2894 21.6959 17.6519 21.4658C18.0143 21.2357 18.3211 21.0576 18.3337 21.0701C18.3462 21.0827 18.2115 21.5444 18.0345 22.0964C17.583 23.5038 17.6092 23.3929 17.74 23.3388C17.8011 23.3135 17.9983 23.2447 18.1785 23.1858C20.0547 22.5729 23.467 21.3889 23.7373 21.2571C24.099 21.0806 24.2426 20.9246 24.4267 20.5078C24.4886 20.3678 24.9144 19.0655 25.3729 17.614C26.1719 15.0847 27.0044 12.4482 27.4423 11.0603C27.5554 10.7014 27.7139 10.201 27.7946 9.9482C27.8751 9.69542 28.0056 9.28168 28.0844 9.0289C28.1633 8.77613 28.4604 7.83531 28.7445 6.93826C29.4197 4.80627 29.4278 4.78006 29.4285 4.73433C29.4288 4.71279 29.1679 4.78884 28.8488 4.90324C28.2151 5.13039 26.2666 5.80842 24.7426 6.33212C24.2113 6.51467 23.7621 6.64959 23.7443 6.63187C23.7165 6.60417 23.7751 5.71916 24.0636 1.80802C24.0924 1.41657 24.109 1.08818 24.1005 1.07816C24.0853 1.06048 20.5842 3.27094 19.2721 4.1267C18.5762 4.58054 18.3222 4.83195 18.1109 5.27576C17.9683 5.57498 17.933 5.87087 17.7959 7.91822C17.7457 8.66772 17.6375 10.1884 17.5553 11.2975C17.2593 15.2962 17.0904 17.6492 17.0091 18.9039C16.9874 19.2382 16.9531 19.5118 16.9326 19.5118C16.9121 19.5118 16.8477 18.8113 16.7895 17.955C16.7312 17.0987 16.6456 15.9176 16.5992 15.3305C16.5528 14.7433 16.4601 13.4889 16.3933 12.543C16.3264 11.597 16.2327 10.3159 16.1849 9.69613C16.137 9.07636 16.0553 7.92872 16.0032 7.14584C15.899 5.58002 15.8442 5.33198 15.5019 4.87791C15.2818 4.58594 14.805 4.24628 13.2056 3.24175C12.7484 2.9547 11.7912 2.34785 11.0782 1.89324C10.3652 1.43864 9.77046 1.06665 9.75648 1.06665C9.74255 1.06665 9.74386 1.19339 9.75934 1.34837ZM10.1233 4.22119C10.1043 4.26845 10.0902 4.25441 10.0874 4.18531C10.0848 4.12279 10.0989 4.0878 10.1186 4.10749C10.1384 4.12718 10.1406 4.17836 10.1233 4.22119ZM5.34113 26.9863C4.54995 27.1284 3.94206 27.5256 3.65299 28.0896C3.52571 28.3378 3.50488 28.4584 3.50488 28.9458C3.50488 29.4599 3.52173 29.546 3.68454 29.8635C3.89163 30.2673 4.27458 30.5905 4.78472 30.7922C5.06415 30.9026 5.23422 30.9221 5.94551 30.9252C6.91796 30.9294 7.2809 30.8447 7.73974 30.5064C8.3096 30.0864 8.5711 29.5188 8.52033 28.812C8.46145 27.9924 7.94017 27.3552 7.12267 27.1036C6.66038 26.9614 5.79712 26.9045 5.34113 26.9863ZM27.2153 26.9831C26.3658 27.0908 25.7031 27.3672 25.297 27.7836C24.9973 28.0908 24.893 28.3977 24.8984 28.9581C24.907 29.8876 25.4646 30.5064 26.576 30.8207C27.1358 30.9789 29.326 30.9679 29.9352 30.8038L30.3518 30.6916L30.3683 29.8464L30.3849 29.0013H29.7858C29.211 29.0013 29.1894 29.0058 29.2488 29.1166C29.2829 29.18 29.3374 29.2483 29.3699 29.2684C29.4025 29.2884 29.4291 29.5396 29.4291 29.8265V30.3483L29.0273 30.386C27.7923 30.5023 26.8157 30.3778 26.376 30.0483C25.6986 29.5405 25.6525 28.436 26.2864 27.9022C26.7581 27.5049 27.4107 27.3849 28.6572 27.4659C29.6575 27.5309 29.7981 27.5763 30.0278 27.9088C30.1273 28.053 30.2343 28.171 30.2654 28.171C30.3314 28.171 30.3413 27.3439 30.2764 27.2423C30.1504 27.045 28.0986 26.8713 27.2153 26.9831ZM9.30883 27.4632V27.8231L9.48169 27.7005C9.63926 27.5887 9.73951 27.5778 10.6127 27.5778H11.5709V29.0196C11.5709 30.1955 11.5547 30.4825 11.4835 30.5764C11.3025 30.8149 11.3582 30.8453 11.943 30.8273L12.4936 30.8102L12.5094 29.194L12.5253 27.5778H13.3655C14.1129 27.5778 14.228 27.5915 14.4063 27.7013L14.6067 27.8247V27.4641V27.1033H11.9578H9.30883V27.4632ZM15.6188 27.1384C15.6188 27.1579 15.6723 27.2415 15.7378 27.3245C15.8505 27.4672 15.8569 27.565 15.8569 29.1601V30.8448L16.3182 30.8275L16.7795 30.8102L16.7952 28.9568L16.811 27.1033H16.2149C15.887 27.1033 15.6188 27.1192 15.6188 27.1384ZM18.2336 27.2596C18.3519 27.4095 18.357 27.4857 18.357 29.1279V30.8399H18.8332H19.3095V29.1495C19.3095 28.2198 19.3295 27.4605 19.3542 27.4618C19.3787 27.4633 19.6101 27.7769 19.8683 28.1588C20.1265 28.5406 20.6479 29.3008 21.027 29.848L21.7162 30.8431L22.5218 30.8267L23.3276 30.8102L23.3433 28.9568L23.359 27.1033H22.7638H22.1686L22.2865 27.2961C22.3957 27.4745 22.4045 27.5981 22.4046 28.9568C22.4048 29.7641 22.3849 30.4233 22.3602 30.4219C22.3357 30.4202 22.0076 29.9659 21.6311 29.4118C21.2545 28.858 20.7455 28.1121 20.5 27.7544L20.0536 27.104L19.0818 27.1038L18.1103 27.1033L18.2336 27.2596ZM6.72944 27.5505C7.47561 27.9142 7.78152 28.7675 7.43067 29.5063C7.26202 29.8615 7.02261 30.0917 6.65039 30.2565C6.00469 30.5425 5.37363 30.4242 4.872 29.9232C4.01521 29.0676 4.43215 27.7077 5.64788 27.3925C5.93409 27.3184 6.38971 27.3849 6.72944 27.5505Z" fill="#B2BFCF"/>
</svg>
