<svg width="16" height="12" viewBox="0 0 16 12" fill="none" xmlns="http://www.w3.org/2000/svg">
<path d="M1.71699 4.65292C1.33201 4.25694 0.698907 4.24802 0.302922 4.63301C-0.0930637 5.01799 -0.101981 5.65109 0.283005 6.04708L1.71699 4.65292ZM6.25 10.75L5.53301 11.4471C5.72129 11.6407 5.9799 11.75 6.25 11.75C6.5201 11.75 6.77871 11.6407 6.96699 11.4471L6.25 10.75ZM15.717 2.44708C16.102 2.05109 16.0931 1.41799 15.6971 1.03301C15.3011 0.648019 14.668 0.656936 14.283 1.05292L15.717 2.44708ZM0.283005 6.04708L5.53301 11.4471L6.96699 10.0529L1.71699 4.65292L0.283005 6.04708ZM6.96699 11.4471L15.717 2.44708L14.283 1.05292L5.53301 10.0529L6.96699 11.4471Z" fill="white"/>
</svg>
