<svg width="62" height="15" viewBox="0 0 62 15" fill="none" xmlns="http://www.w3.org/2000/svg">
<path d="M13.399 6.09925C13.2113 5.89379 8.79535 1.07715 7.19671 1.07715C5.59856 1.07715 1.18213 5.89379 0.994915 6.09901C0.976603 6.11925 0.54508 6.60634 0.54508 7.17414C0.54508 7.61599 0.574956 8.06071 0.575197 8.065C0.576161 8.08547 0.586521 8.27331 0.692053 8.32449C0.70916 8.33283 0.727712 8.33687 0.746746 8.33687C0.78602 8.33687 0.82963 8.31949 0.877095 8.28521L0.878666 8.28384C0.985465 8.19089 5.4358 4.31729 7.19671 4.31729C8.96979 4.31729 13.4689 8.24355 13.5139 8.28331C13.5628 8.31902 13.6072 8.33663 13.6469 8.33663C13.6662 8.33663 13.6843 8.33259 13.7016 8.32425C13.8069 8.27331 13.8175 8.08523 13.8182 8.06404C13.8185 8.06071 13.8481 7.61599 13.8481 7.17414C13.8483 6.60634 13.4173 6.11948 13.399 6.09925Z" fill="#A7B0B9"/>
<path d="M13.4053 10.6833C13.2176 10.4776 8.79704 5.6562 7.19671 5.6562C5.59687 5.6562 1.1761 10.4776 0.98865 10.6831C0.970338 10.7033 0.538574 11.1909 0.538574 11.7591C0.538574 12.2015 0.56821 12.6467 0.568692 12.6509C0.569655 12.6714 0.580016 12.8595 0.685788 12.9107C0.702895 12.919 0.721448 12.9233 0.740482 12.9233C0.779755 12.9233 0.823607 12.9059 0.871072 12.8716C0.918778 12.83 5.42219 8.89967 7.19671 8.89967C8.97148 8.89967 13.4751 12.83 13.5202 12.8697C13.5693 12.9054 13.6137 12.9233 13.6534 12.9233C13.6727 12.9233 13.6908 12.919 13.7081 12.9109C13.8137 12.86 13.824 12.6717 13.825 12.6505C13.8252 12.6471 13.8548 12.2019 13.8548 11.7596C13.8548 11.1909 13.4233 10.7035 13.4053 10.6833Z" fill="#A7B0B9"/>
<path fill-rule="evenodd" clip-rule="evenodd" d="M24.7224 0.00124765C24.7059 0.00220776 24.6485 0.00538808 24.5948 0.00830842C23.7449 0.0546089 22.8939 0.262364 22.1117 0.614511C21.9843 0.671882 21.715 0.807229 21.5937 0.874827C20.7674 1.33555 20.0486 1.95141 19.4681 2.69603C18.9924 3.30634 18.6131 4.00977 18.3668 4.73878C18.1827 5.28349 18.0673 5.83929 18.0202 6.40897C18.0022 6.62531 18 6.69087 18 6.99904C18 7.30722 18.0022 7.37278 18.0202 7.58911C18.1413 9.05143 18.7198 10.4399 19.6703 11.5496C19.906 11.8248 20.197 12.1147 20.4658 12.3424C21.5751 13.2816 22.9341 13.8481 24.3822 13.9749C24.6353 13.997 25.0513 14.0064 25.2951 13.9954C26.559 13.9385 27.7199 13.5738 28.7789 12.9008C29.4696 12.4618 30.1073 11.8695 30.6078 11.202C31.1166 10.5235 31.4963 9.76138 31.7301 8.94907C31.8586 8.50255 31.9415 8.05001 31.9798 7.58661C31.9978 7.36801 32 7.30678 32 7.00154C32 6.69567 31.9976 6.62314 31.9797 6.40897C31.864 5.01973 31.343 3.71028 30.4725 2.62102C30.219 2.30382 29.9197 1.99166 29.6063 1.71774C28.8419 1.04966 27.9294 0.552138 26.951 0.270034C26.4614 0.128868 25.9855 0.0474681 25.4176 0.00777339C25.3465 0.0027978 24.7861 -0.00245779 24.7224 0.00124765ZM25.2776 0.828326C25.8243 0.854969 26.3581 0.955236 26.8759 1.12855C26.9432 1.15106 26.9989 1.17009 26.9997 1.17082C27.002 1.1729 25.0748 5.32541 25.0676 5.33385C25.064 5.33797 25.0564 5.35086 25.0505 5.36249C25.0397 5.38397 25.019 5.39885 25 5.39885C24.9809 5.39885 24.9602 5.38397 24.9494 5.36249C24.9436 5.35086 24.9359 5.33797 24.9324 5.33385C24.9253 5.32562 22.9978 1.17283 23.0002 1.17112C23.0011 1.17055 23.0287 1.1608 23.0618 1.14947C23.6052 0.962962 24.1456 0.857815 24.7099 0.828776C24.8231 0.82295 25.1617 0.82268 25.2776 0.828326ZM23.1422 4.01045C23.9304 5.71026 24.2659 6.42883 24.2817 6.4511C24.3069 6.48639 24.3404 6.51068 24.3747 6.51857C24.4068 6.52594 25.5906 6.52593 25.625 6.51856C25.6611 6.51082 25.6935 6.48644 25.7212 6.44611C25.7381 6.4215 26.0638 5.71573 26.8461 4.00869C27.4517 2.68716 27.9489 1.60407 27.951 1.60183C27.9576 1.59461 28.1789 1.72841 28.3601 1.84917C28.9789 2.26153 29.5243 2.77972 29.9518 3.36135C30.0203 3.45464 30.1692 3.67437 30.2066 3.73741L30.228 3.77366L28.6571 6.81424C27.7931 8.48656 27.081 9.86122 27.0747 9.86905C27.0508 9.89873 27.0172 9.90799 26.9963 9.89064C26.9905 9.88582 26.9777 9.86839 26.9678 9.85188C26.9579 9.83538 26.6787 9.22331 26.3474 8.49172C25.9124 7.531 25.7385 7.15195 25.7212 7.12693C25.6932 7.08616 25.6607 7.06193 25.6239 7.0543C25.6056 7.05051 25.4122 7.04927 24.985 7.05021L24.3722 7.05155L24.3473 7.06382C24.3172 7.07864 24.2854 7.11031 24.2654 7.14551C24.2572 7.15984 23.9805 7.76789 23.6504 8.49672C23.3203 9.22556 23.0421 9.83538 23.0322 9.85188C23.009 9.89049 22.998 9.89939 22.9732 9.89939C22.9482 9.89939 22.9306 9.88222 22.9011 9.829C22.879 9.78909 19.7764 3.83134 19.7581 3.79345L19.7471 3.77074L19.7783 3.72095C20.2375 2.98989 20.8719 2.34352 21.6162 1.8485C21.7806 1.73921 22.0107 1.59805 22.0208 1.60035C22.0233 1.60091 22.5279 2.68545 23.1422 4.01045ZM21.0085 8.49541C22.003 10.4293 22.827 12.0275 22.8396 12.0469C22.8878 12.121 22.9391 12.1495 23.025 12.1496C23.1176 12.1497 23.177 12.1094 23.2309 12.0096C23.2406 11.9918 23.626 11.1378 24.0873 10.1119C24.5486 9.08604 24.9293 8.24037 24.9333 8.23264C24.9464 8.20722 24.9751 8.1796 24.9917 8.17649C25.0138 8.17236 25.0339 8.18128 25.0439 8.19971C25.0486 8.2083 25.0577 8.22328 25.0641 8.233C25.0705 8.24271 25.4584 9.08912 25.9261 10.1139C26.3938 11.1387 26.7843 11.9918 26.794 12.0096C26.8507 12.1145 26.9122 12.1536 27.0123 12.1485C27.0932 12.1444 27.1401 12.1169 27.1854 12.0469C27.198 12.0275 28.022 10.4293 29.0164 8.49541C30.0109 6.56147 30.826 4.97908 30.8277 4.97898C30.8313 4.97877 30.867 5.08053 30.9021 5.19133C31.0581 5.68337 31.1474 6.19016 31.1727 6.72651C31.1838 6.96086 31.1742 7.30535 31.1497 7.55411C31.0165 8.90655 30.4434 10.1736 29.5066 11.187C29.35 11.3564 29.1106 11.5845 28.9339 11.7325C28.0341 12.4864 26.9496 12.9688 25.8103 13.1219C25.5097 13.1623 25.3524 13.1721 25 13.1721C24.6935 13.1721 24.6018 13.168 24.3778 13.1444C23.5793 13.0603 22.8124 12.8226 22.1089 12.4412C21.0667 11.8763 20.2029 11.0212 19.6218 9.9794C19.1594 9.15055 18.8986 8.23441 18.8523 7.27658C18.8457 7.14151 18.8489 6.74144 18.8574 6.624C18.8972 6.07611 18.9914 5.59734 19.163 5.07147C19.1797 5.0205 19.1949 4.97888 19.1968 4.97898C19.1988 4.97908 20.014 6.56147 21.0085 8.49541Z" fill="#A7B0B9"/>
<path fill-rule="evenodd" clip-rule="evenodd" d="M42.4135 0.0144878C40.7369 0.174288 39.2155 0.884208 38.0501 2.05043C36.172 3.92987 35.5196 6.70503 36.3629 9.22728C36.7135 10.276 37.265 11.1583 38.0728 11.9629C39.0621 12.9484 40.2465 13.5857 41.6129 13.8679C42.4853 14.0481 43.55 14.0437 44.4374 13.8562C45.7903 13.5703 46.9781 12.9232 47.9557 11.9395C48.3316 11.5612 48.5494 11.297 48.8238 10.8865C50.6099 8.21377 50.3385 4.64837 48.1685 2.27741C47.0466 1.05159 45.5585 0.275537 43.898 0.0501925C43.5577 0.00401201 42.7317 -0.0158382 42.4135 0.0144878ZM36.9137 5.4979C37.5264 2.98579 39.6711 1.08281 42.2409 0.771254C42.8843 0.693262 43.726 0.734115 44.357 0.873963C45.0539 1.02841 45.8518 1.36471 46.4318 1.74845C47.9778 2.77131 48.9684 4.35402 49.2254 6.2121C49.2757 6.57601 49.2688 7.51156 49.2131 7.87696C49.0007 9.26962 48.4124 10.4464 47.4393 11.4249C47.0182 11.8484 46.6142 12.159 46.0979 12.4564C44.8341 13.1842 43.3113 13.4382 41.8419 13.1663C39.6415 12.7593 37.7978 11.1653 37.0716 9.04235C36.8326 8.34368 36.7468 7.80716 36.7458 7.00611C36.745 6.34122 36.7761 6.06232 36.9137 5.4979Z" fill="#A7B0B9"/>
<path fill-rule="evenodd" clip-rule="evenodd" d="M42.3623 1.89808C42.0895 1.93563 41.61 2.0451 41.5015 2.09461C41.4364 2.12427 41.406 2.18787 41.4286 2.24683C41.4365 2.2675 41.5721 2.40307 41.7299 2.54812C42.2375 3.01468 42.7392 3.59472 42.9661 3.97735L43.0307 4.08621L42.9332 4.08565C42.7842 4.08478 42.6586 4.01352 42.3239 3.73984C41.6016 3.14926 40.6975 2.52381 40.5661 2.52381C40.46 2.52381 40.2882 2.61865 39.9879 2.84308C39.7018 3.05684 39.1234 3.59956 39.0987 3.67735C39.0721 3.76126 39.1248 3.81282 39.41 3.98176C39.9308 4.29027 40.3498 4.58641 40.785 4.9536C40.9972 5.13264 41.009 5.14759 40.9642 5.1814C40.8703 5.25222 40.6835 5.20369 40.121 4.96238C39.2642 4.59476 38.7157 4.40668 38.6127 4.4452C38.53 4.47617 38.4816 4.54599 38.3463 4.82979C38.1811 5.17649 38.0554 5.55682 37.9756 5.95167C37.9111 6.27083 37.9136 6.34652 37.9908 6.41071C38.0107 6.4272 38.1703 6.47067 38.3455 6.50729C38.73 6.58769 39.2595 6.76027 39.5557 6.90173C40.3588 7.28534 40.9095 7.91894 41.1442 8.72944C41.2888 9.22869 41.2862 9.40178 41.1333 9.46518C41.0272 9.50915 40.9538 9.48536 40.4149 9.23207L39.9294 9.00393H39.1159C38.3201 9.00393 38.3011 9.00511 38.2436 9.05875C38.1982 9.10111 38.1879 9.13218 38.1982 9.19562C38.2059 9.24347 38.3657 9.50654 38.581 9.82599C38.7842 10.1275 38.9996 10.4577 39.0596 10.5598C39.1957 10.7913 39.2309 10.8044 39.6879 10.7926L40.0206 10.784L40.3585 10.5855L40.6964 10.387H43.1537C45.557 10.387 45.6116 10.3881 45.6375 10.4366C45.6521 10.4638 45.664 10.5379 45.664 10.6012C45.664 10.8184 45.729 10.8313 46.1759 10.7025C46.6049 10.5788 47.0341 10.3486 47.334 10.0812C47.4953 9.93753 47.4979 9.86141 47.3468 9.719C47.004 9.39589 46.34 9.0735 45.8962 9.01456C45.7097 8.98982 45.664 9.03562 45.664 9.24726C45.664 9.439 45.6219 9.49058 45.4655 9.49058C45.3826 9.49058 45.3494 9.47639 45.3075 9.42309C45.2363 9.3325 45.2405 9.24477 45.3313 8.92704C45.7074 7.61107 45.7908 6.23439 45.5608 5.13635C45.3817 4.2809 44.9982 3.46519 44.4591 2.79275C44.2392 2.51845 43.7383 2.02522 43.5928 1.9396C43.4796 1.87298 43.4615 1.87052 43.0534 1.86586C42.7985 1.86296 42.5245 1.87574 42.3623 1.89808ZM44.5399 8.38922C44.6064 8.13583 44.4678 7.83072 44.2301 7.70722C43.8074 7.48761 43.3328 7.77261 43.3301 8.24773C43.3284 8.545 43.4867 8.75892 43.77 8.84214C44.1063 8.94093 44.4479 8.73999 44.5399 8.38922Z" fill="#A7B0B9"/>
<path d="M54.6494 13.3896C54.6494 13.152 54.7113 12.9697 54.835 12.8428C54.9587 12.7158 55.1377 12.6523 55.3721 12.6523C55.6097 12.6523 55.7904 12.7191 55.9141 12.8525C56.0378 12.9827 56.0996 13.1618 56.0996 13.3896C56.0996 13.6208 56.0361 13.8047 55.9092 13.9414C55.7855 14.0749 55.6064 14.1416 55.3721 14.1416C55.1377 14.1416 54.9587 14.0749 54.835 13.9414C54.7113 13.8079 54.6494 13.624 54.6494 13.3896ZM57.4033 13.3896C57.4033 13.152 57.4652 12.9697 57.5889 12.8428C57.7126 12.7158 57.8916 12.6523 58.126 12.6523C58.3636 12.6523 58.5443 12.7191 58.668 12.8525C58.7917 12.9827 58.8535 13.1618 58.8535 13.3896C58.8535 13.6208 58.79 13.8047 58.6631 13.9414C58.5394 14.0749 58.3604 14.1416 58.126 14.1416C57.8916 14.1416 57.7126 14.0749 57.5889 13.9414C57.4652 13.8079 57.4033 13.624 57.4033 13.3896ZM60.1572 13.3896C60.1572 13.152 60.2191 12.9697 60.3428 12.8428C60.4665 12.7158 60.6455 12.6523 60.8799 12.6523C61.1175 12.6523 61.2982 12.7191 61.4219 12.8525C61.5456 12.9827 61.6074 13.1618 61.6074 13.3896C61.6074 13.6208 61.5439 13.8047 61.417 13.9414C61.2933 14.0749 61.1143 14.1416 60.8799 14.1416C60.6455 14.1416 60.4665 14.0749 60.3428 13.9414C60.2191 13.8079 60.1572 13.624 60.1572 13.3896Z" fill="#A7B0B9"/>
</svg>
