<svg width="46" height="14" viewBox="0 0 46 14" fill="none" xmlns="http://www.w3.org/2000/svg">
<path d="M24.4578 10.3809C23.5634 10.3809 22.739 10.0801 22.0798 9.5759C22.7488 8.727 23.1492 7.6594 23.1492 6.5C23.1492 5.3407 22.7488 4.2731 22.0798 3.4241C22.739 2.92 23.5634 2.6191 24.4578 2.6191C26.6118 2.6191 28.3643 4.3601 28.3643 6.5C28.3643 8.64 26.6118 10.3809 24.4578 10.3809ZM15.7381 9.5759C16.4072 8.727 16.8076 7.6594 16.8076 6.5C16.8076 5.3407 16.4072 4.2731 15.7382 3.4241C16.3973 2.92 17.2219 2.6191 18.1162 2.6191C19.0105 2.6191 19.8349 2.92 20.4942 3.4241C19.8252 4.2731 19.4248 5.3407 19.4248 6.5C19.4248 7.6594 19.8252 8.727 20.4942 9.5759C19.8349 10.0801 19.0105 10.3809 18.1162 10.3809C17.2219 10.3809 16.3973 10.0801 15.7381 9.5759ZM9.39644 9.5759C10.0655 8.727 10.466 7.6594 10.466 6.5C10.466 5.3407 10.0655 4.2731 9.39654 3.4241C10.0557 2.92 10.8803 2.6191 11.7745 2.6191C12.6688 2.6191 13.4934 2.92 14.1526 3.4241C13.4836 4.2731 13.0831 5.3407 13.0831 6.5C13.0831 7.6594 13.4836 8.727 14.1526 9.5759C13.4934 10.0801 12.6688 10.3809 11.7745 10.3809C10.8803 10.3809 10.0557 10.0801 9.39644 9.5759ZM1.5264 6.5C1.5264 4.3601 3.2789 2.6191 5.43293 2.6191C6.3272 2.6191 7.15181 2.92 7.81094 3.4241C7.14195 4.2731 6.74152 5.3407 6.74152 6.5C6.74152 7.6594 7.14195 8.727 7.81094 9.5759C7.15181 10.0801 6.3272 10.3809 5.43293 10.3809C3.2789 10.3809 1.5264 8.64 1.5264 6.5ZM8.60374 8.7627C8.14141 8.1252 7.86801 7.344 7.86801 6.5C7.86801 5.6561 8.14141 4.8748 8.60374 4.2373C9.06607 4.8748 9.33947 5.6561 9.33947 6.5C9.33947 7.344 9.06607 8.1252 8.60374 8.7627ZM14.9454 8.7627C14.483 8.1252 14.2096 7.344 14.2096 6.5C14.2096 5.6561 14.483 4.8748 14.9454 4.2373C15.4077 4.8748 15.6811 5.6561 15.6811 6.5C15.6811 7.344 15.4077 8.1252 14.9454 8.7627ZM21.287 8.7627C20.8246 8.1252 20.5512 7.344 20.5512 6.5C20.5512 5.6561 20.8246 4.8748 21.287 4.2373C21.7493 4.8748 22.0227 5.6561 22.0227 6.5C22.0227 7.344 21.7493 8.1252 21.287 8.7627ZM24.4578 1.5C23.2567 1.5 22.1531 1.9207 21.287 2.6207C20.4209 1.9207 19.3172 1.5 18.1162 1.5C16.9151 1.5 15.8114 1.9207 14.9454 2.6207C14.0793 1.9207 12.9755 1.5 11.7745 1.5C10.5735 1.5 9.46982 1.9207 8.60374 2.6207C7.73766 1.9207 6.63391 1.5 5.43293 1.5C2.65772 1.5 0.399902 3.743 0.399902 6.5C0.399902 9.2571 2.65772 11.5 5.43293 11.5C6.63391 11.5 7.73766 11.0794 8.60374 10.3793C9.46982 11.0794 10.5735 11.5 11.7745 11.5C12.9755 11.5 14.0793 11.0794 14.9454 10.3793C15.8114 11.0794 16.9151 11.5 18.1162 11.5C19.3172 11.5 20.4209 11.0794 21.287 10.3793C22.1531 11.0794 23.2567 11.5 24.4578 11.5C27.233 11.5 29.4908 9.2571 29.4908 6.5C29.4908 3.743 27.233 1.5 24.4578 1.5Z" fill="#DF1B2A"/>
<path fill-rule="evenodd" clip-rule="evenodd" d="M37.92 0.167714C35.8607 0.502389 34.0321 1.22125 33.6369 1.85155C33.2623 2.44915 33.3308 3.62238 33.849 5.48154C34.0471 6.19211 34.128 6.34196 34.2762 6.27214C36.043 5.44056 37.9986 5.14422 42.3929 5.04256L45.7273 4.96529L45.86 4.30435C46.0278 3.46832 46.0473 2.48677 45.9041 2.09309C45.619 1.30934 43.7507 0.504071 41.4339 0.166392C39.9093 -0.0558037 39.2947 -0.0555634 37.92 0.167714ZM36.1757 2.33007C36.4786 2.64671 36.4038 3.31186 36.0203 3.71275C35.7212 4.02531 35.6058 4.06401 34.973 4.06401C34.2943 4.06401 34.2645 4.05163 34.3219 3.79362C34.3549 3.64485 34.4463 3.21236 34.525 2.83226L34.6682 2.14128H35.3316C35.7813 2.14128 36.0531 2.20208 36.1757 2.33007ZM37.4556 2.34617C37.4142 2.45877 37.3488 2.79176 37.3101 3.08594C37.21 3.84962 37.4533 3.63344 37.6316 2.80017C37.7688 2.15954 37.7835 2.14128 38.1647 2.14128C38.4844 2.14128 38.5453 2.17997 38.4956 2.35158C38.462 2.46718 38.3855 2.79561 38.3256 3.08125C38.2659 3.36678 38.1274 3.70374 38.0182 3.82992C37.7651 4.12217 37.192 4.23621 36.7864 4.07494C36.4287 3.93278 36.3974 3.71515 36.5959 2.74802C36.7168 2.15858 36.7319 2.14128 37.1256 2.14128C37.4602 2.14128 37.5177 2.17697 37.4556 2.34617ZM40.1988 2.21422C40.2988 2.25436 40.3807 2.41659 40.3807 2.57473C40.3807 2.81231 40.3224 2.8623 40.0453 2.8623C39.8609 2.8623 39.6862 2.79477 39.6572 2.71209C39.5753 2.47836 39.3616 2.74994 39.2762 3.1965C39.2047 3.57011 39.3563 3.73702 39.5183 3.46315C39.5922 3.3383 40.2657 3.29131 40.2657 3.411C40.2657 3.82234 39.4595 4.27623 38.9997 4.12373C38.0345 3.80348 38.5228 2.14128 39.5822 2.14128C39.8213 2.14128 40.0988 2.17408 40.1988 2.21422ZM42.1546 2.41166C42.1842 2.56043 42.2406 2.99293 42.2801 3.37303L42.3519 4.06401H41.9412C41.7153 4.06401 41.5305 4.00993 41.5305 3.94384C41.5305 3.87774 41.4012 3.82367 41.2431 3.82367C41.085 3.82367 40.9556 3.87774 40.9556 3.94384C40.9556 4.00993 40.7745 4.06401 40.5533 4.06401H40.151L40.6395 3.10493L41.1281 2.14596L41.6146 2.14356C42.0274 2.14164 42.1092 2.18226 42.1546 2.41166ZM44.1544 2.41166C44.1307 2.58555 44.0381 2.68217 43.8949 2.68253C43.676 2.68289 43.6545 2.73216 43.4375 3.73354C43.3768 4.01342 43.3069 4.06401 42.9807 4.06401H42.5956L42.7455 3.38985C42.8868 2.75415 42.8827 2.71209 42.6729 2.65477C42.4526 2.59456 42.3791 2.37609 42.5271 2.22143C42.5691 2.17733 42.9609 2.14128 43.3974 2.14128C44.1547 2.14128 44.1894 2.15365 44.1544 2.41166ZM45.0595 2.41166C45.0263 2.56043 44.9395 2.99293 44.8665 3.37303C44.7353 4.05608 44.7291 4.06401 44.3317 4.06401C44.0045 4.06401 43.94 4.02495 43.9848 3.85371C44.0152 3.73811 44.1031 3.34599 44.1803 2.98247C44.36 2.13491 44.3555 2.14128 44.7692 2.14128C45.0741 2.14128 45.112 2.17661 45.0595 2.41166ZM35.2568 3.04039C35.1751 3.49524 35.2521 3.70542 35.4306 3.51519C35.5948 3.34022 35.625 2.71317 35.4718 2.65693C35.3898 2.62677 35.3035 2.78083 35.2568 3.04039ZM41.4365 3.04256C41.329 3.28927 41.3359 3.34298 41.4754 3.34298C41.5802 3.34298 41.6455 3.2275 41.6455 3.04256C41.6455 2.87732 41.6279 2.74213 41.6065 2.74213C41.585 2.74213 41.5084 2.87732 41.4365 3.04256ZM43.7727 5.75841C38.9855 6.1688 36.2183 7.24697 35.5984 8.94318L35.4019 9.48082L35.9337 10.2874C37.0229 11.9395 38.837 13.8348 39.4675 13.9797C39.9446 14.0891 40.4318 13.7715 41.4777 12.6692C43.1429 10.9145 44.3595 8.95363 45.1017 6.82805C45.4524 5.82367 45.4551 5.61385 45.1169 5.64305C45.01 5.6523 44.4051 5.70422 43.7727 5.75841Z" fill="#DF1B2A"/>
</svg>
