<svg width="62" height="15" viewBox="0 0 62 15" fill="none" xmlns="http://www.w3.org/2000/svg">
<path fill-rule="evenodd" clip-rule="evenodd" d="M6.72237 0.00124765C6.70586 0.00220776 6.64847 0.00538808 6.59482 0.00830842C5.74492 0.0546089 4.89392 0.262364 4.11172 0.614511C3.98429 0.671882 3.71497 0.807228 3.59372 0.874827C2.76736 1.33555 2.04857 1.95141 1.46813 2.69603C0.992395 3.30634 0.613135 4.00977 0.366765 4.73878C0.182677 5.28349 0.0673396 5.83929 0.0201572 6.40897C0.00224066 6.6253 0 6.69087 0 6.99904C0 7.30722 0.00224066 7.37278 0.0201572 7.58911C0.141262 9.05143 0.719779 10.4399 1.67031 11.5496C1.90601 11.8248 2.19698 12.1147 2.46581 12.3424C3.57506 13.2816 4.93408 13.8481 6.38225 13.9749C6.63525 13.997 7.05125 14.0064 7.29508 13.9954C8.559 13.9385 9.71992 13.5738 10.7789 12.9008C11.4696 12.4618 12.1073 11.8695 12.6078 11.202C13.1166 10.5235 13.4963 9.76138 13.7301 8.94907C13.8586 8.50255 13.9415 8.05001 13.9798 7.58661C13.9978 7.36801 14 7.30678 14 7.00154C14 6.69567 13.9976 6.62314 13.9797 6.40897C13.864 5.01973 13.343 3.71028 12.4725 2.62102C12.219 2.30382 11.9197 1.99166 11.6063 1.71774C10.8419 1.04966 9.92943 0.552138 8.95104 0.270034C8.46144 0.128868 7.9855 0.0474681 7.41763 0.00777339C7.34647 0.0027978 6.78613 -0.00245779 6.72237 0.00124765ZM7.27757 0.828326C7.82427 0.854969 8.35808 0.955236 8.87591 1.12855C8.94318 1.15106 8.99888 1.17009 8.99969 1.17082C9.00201 1.1729 7.07476 5.32541 7.06756 5.33385C7.06404 5.33797 7.05637 5.35086 7.05053 5.36249C7.03973 5.38397 7.01903 5.39885 6.99997 5.39885C6.98092 5.39885 6.96022 5.38397 6.94942 5.36249C6.94357 5.35086 6.9359 5.33797 6.93237 5.33385C6.92535 5.32562 4.99782 1.17283 5.00024 1.17112C5.00107 1.17055 5.02875 1.1608 5.06176 1.14947C5.60524 0.962962 6.14561 0.857815 6.70987 0.828776C6.82312 0.82295 7.16174 0.82268 7.27757 0.828326ZM5.14224 4.01045C5.93036 5.71026 6.26586 6.42883 6.28175 6.4511C6.30694 6.48639 6.34042 6.51068 6.37474 6.51857C6.40683 6.52594 7.59063 6.52593 7.62504 6.51856C7.6611 6.51082 7.69346 6.48644 7.72118 6.44611C7.7381 6.4215 8.06382 5.71573 8.8461 4.00869C9.45171 2.68716 9.9489 1.60407 9.95096 1.60183C9.9576 1.59461 10.1789 1.72841 10.3601 1.84917C10.9789 2.26153 11.5243 2.77972 11.9518 3.36135C12.0203 3.45464 12.1692 3.67437 12.2066 3.73741L12.228 3.77366L10.6571 6.81424C9.79306 8.48656 9.08098 9.86122 9.07469 9.86905C9.05079 9.89873 9.01716 9.90799 8.99629 9.89064C8.99049 9.88582 8.97766 9.86839 8.96777 9.85188C8.95787 9.83538 8.67872 9.22331 8.34742 8.49172C7.91237 7.531 7.73845 7.15195 7.72123 7.12693C7.69315 7.08616 7.66069 7.06193 7.6239 7.0543C7.60561 7.05051 7.41218 7.04927 6.98496 7.05021L6.37224 7.05155L6.34731 7.06382C6.31717 7.07864 6.28542 7.11031 6.26539 7.14551C6.25724 7.15984 5.98048 7.76789 5.65037 8.49672C5.32027 9.22556 5.04208 9.83538 5.03218 9.85188C5.00903 9.89049 4.99797 9.89939 4.97317 9.89939C4.94821 9.89939 4.93064 9.88222 4.90111 9.829C4.87897 9.78909 1.77644 3.83134 1.75807 3.79345L1.74706 3.77074L1.77833 3.72095C2.23746 2.98989 2.8719 2.34352 3.61623 1.8485C3.78056 1.73921 4.01071 1.59805 4.02082 1.60035C4.02326 1.60091 4.5279 2.68545 5.14224 4.01045ZM3.00851 8.49541C4.003 10.4293 4.82698 12.0275 4.83958 12.0469C4.88777 12.121 4.9391 12.1495 5.02497 12.1496C5.1176 12.1497 5.17698 12.1094 5.23094 12.0096C5.24061 11.9918 5.62596 11.1378 6.08727 10.1119C6.54858 9.08604 6.92928 8.24037 6.93326 8.23264C6.94639 8.20722 6.97514 8.1796 6.99172 8.17649C7.01379 8.17236 7.03386 8.18128 7.04394 8.19971C7.04865 8.2083 7.05771 8.22328 7.0641 8.233C7.07047 8.24271 7.45836 9.08912 7.92606 10.1139C8.39376 11.1387 8.78434 11.9918 8.79401 12.0096C8.85075 12.1145 8.91215 12.1536 9.01228 12.1485C9.09323 12.1444 9.14006 12.1169 9.18542 12.0469C9.198 12.0275 10.022 10.4293 11.0164 8.49541C12.0109 6.56147 12.826 4.97908 12.8277 4.97898C12.8313 4.97877 12.867 5.08053 12.9021 5.19133C13.0581 5.68337 13.1474 6.19016 13.1727 6.72651C13.1838 6.96085 13.1742 7.30535 13.1497 7.55411C13.0165 8.90655 12.4434 10.1736 11.5066 11.187C11.35 11.3564 11.1106 11.5845 10.9339 11.7325C10.0341 12.4864 8.94962 12.9688 7.81027 13.1219C7.50971 13.1623 7.35239 13.1721 6.99997 13.1721C6.69352 13.1721 6.60181 13.168 6.37781 13.1444C5.5793 13.0603 4.81241 12.8226 4.10891 12.4412C3.06673 11.8763 2.2029 11.0212 1.62176 9.9794C1.15942 9.15055 0.898595 8.23441 0.852268 7.27658C0.845736 7.14151 0.848882 6.74144 0.857405 6.624C0.897155 6.07611 0.991404 5.59734 1.16304 5.07147C1.17968 5.0205 1.19487 4.97888 1.19681 4.97898C1.19876 4.97908 2.01402 6.56147 3.00851 8.49541Z" fill="#DF1B2A"/>
<path fill-rule="evenodd" clip-rule="evenodd" d="M24.4135 0.0144878C22.7369 0.174288 21.2155 0.884208 20.0501 2.05043C18.172 3.92987 17.5196 6.70503 18.3629 9.22728C18.7135 10.276 19.265 11.1583 20.0728 11.9629C21.0621 12.9484 22.2465 13.5857 23.6129 13.8679C24.4853 14.0481 25.55 14.0437 26.4374 13.8562C27.7903 13.5703 28.9781 12.9232 29.9557 11.9395C30.3316 11.5612 30.5494 11.297 30.8238 10.8865C32.6099 8.21377 32.3385 4.64837 30.1685 2.27741C29.0466 1.05159 27.5585 0.275537 25.898 0.0501925C25.5577 0.00401201 24.7317 -0.0158382 24.4135 0.0144878ZM18.9137 5.4979C19.5264 2.98579 21.6711 1.08281 24.2409 0.771254C24.8843 0.693262 25.726 0.734115 26.357 0.873963C27.0539 1.02841 27.8518 1.36471 28.4318 1.74845C29.9778 2.77131 30.9684 4.35402 31.2254 6.2121C31.2757 6.57601 31.2688 7.51156 31.2131 7.87696C31.0007 9.26962 30.4124 10.4464 29.4393 11.4249C29.0182 11.8484 28.6142 12.159 28.0979 12.4564C26.8341 13.1842 25.3113 13.4382 23.8419 13.1663C21.6415 12.7593 19.7978 11.1653 19.0716 9.04235C18.8326 8.34368 18.7468 7.80716 18.7458 7.00611C18.745 6.34122 18.7761 6.06232 18.9137 5.4979Z" fill="#DF1B2A"/>
<path fill-rule="evenodd" clip-rule="evenodd" d="M24.3623 1.89808C24.0895 1.93563 23.61 2.0451 23.5015 2.09461C23.4364 2.12427 23.406 2.18787 23.4286 2.24683C23.4365 2.2675 23.5721 2.40307 23.7299 2.54812C24.2375 3.01468 24.7392 3.59472 24.9661 3.97735L25.0307 4.08621L24.9332 4.08565C24.7842 4.08478 24.6586 4.01352 24.3239 3.73984C23.6016 3.14926 22.6975 2.52381 22.5661 2.52381C22.46 2.52381 22.2882 2.61865 21.9879 2.84308C21.7018 3.05684 21.1234 3.59956 21.0987 3.67735C21.0721 3.76126 21.1248 3.81282 21.41 3.98176C21.9308 4.29027 22.3498 4.58641 22.785 4.9536C22.9972 5.13264 23.009 5.14759 22.9642 5.1814C22.8703 5.25222 22.6835 5.20369 22.121 4.96238C21.2642 4.59476 20.7157 4.40668 20.6127 4.4452C20.53 4.47617 20.4816 4.54599 20.3463 4.82979C20.1811 5.17649 20.0554 5.55681 19.9756 5.95167C19.9111 6.27083 19.9136 6.34652 19.9908 6.41071C20.0107 6.4272 20.1703 6.47067 20.3455 6.50729C20.73 6.58769 21.2595 6.76027 21.5557 6.90173C22.3588 7.28534 22.9095 7.91894 23.1442 8.72944C23.2888 9.22869 23.2862 9.40178 23.1333 9.46518C23.0272 9.50915 22.9538 9.48536 22.4149 9.23207L21.9294 9.00393H21.1159C20.3201 9.00393 20.3011 9.00511 20.2436 9.05875C20.1982 9.10111 20.1879 9.13218 20.1982 9.19562C20.2059 9.24347 20.3657 9.50654 20.581 9.82599C20.7842 10.1275 20.9996 10.4577 21.0596 10.5598C21.1957 10.7913 21.2309 10.8044 21.6879 10.7926L22.0206 10.784L22.3585 10.5855L22.6964 10.387H25.1537C27.557 10.387 27.6116 10.3881 27.6375 10.4366C27.6521 10.4638 27.664 10.5379 27.664 10.6012C27.664 10.8184 27.729 10.8313 28.1759 10.7025C28.6049 10.5788 29.0341 10.3486 29.334 10.0812C29.4953 9.93753 29.4979 9.86141 29.3468 9.719C29.004 9.39589 28.34 9.0735 27.8962 9.01456C27.7097 8.98982 27.664 9.03562 27.664 9.24726C27.664 9.439 27.6219 9.49058 27.4655 9.49058C27.3826 9.49058 27.3494 9.47639 27.3075 9.42309C27.2363 9.3325 27.2405 9.24477 27.3313 8.92704C27.7074 7.61107 27.7908 6.23439 27.5608 5.13635C27.3817 4.2809 26.9982 3.46519 26.4591 2.79275C26.2392 2.51845 25.7383 2.02522 25.5928 1.9396C25.4796 1.87298 25.4615 1.87052 25.0534 1.86586C24.7985 1.86296 24.5245 1.87574 24.3623 1.89808ZM26.5399 8.38922C26.6064 8.13583 26.4678 7.83072 26.2301 7.70722C25.8074 7.48761 25.3328 7.77261 25.3301 8.24773C25.3284 8.545 25.4867 8.75892 25.77 8.84214C26.1063 8.94093 26.4479 8.73999 26.5399 8.38922Z" fill="#DF1B2A"/>
<path fill-rule="evenodd" clip-rule="evenodd" d="M50 7C50 3.15 46.85 0 43 0C39.15 0 36 3.15 36 7C36 10.85 39.15 14 43 14C46.85 14 50 10.85 50 7ZM43 12.8625C44.5531 12.8625 46.0406 12.25 47.1344 11.1563C47.4398 10.8509 47.7058 10.5193 47.9312 10.1668L47.9438 10.1719L44.7056 8.868L42.9894 8.17286L38.072 10.1786C38.2931 10.5212 38.5512 10.8419 38.8438 11.1344C39.9594 12.25 41.4469 12.8625 43 12.8625ZM37.703 9.5159C37.7342 9.58182 37.7667 9.64716 37.8005 9.71188L41.9719 6.43125L42.7334 1.18727C41.2775 1.2531 39.8966 1.85649 38.8656 2.8875C37.75 3.95938 37.1375 5.44688 37.1375 7C37.1375 7.87363 37.3313 8.7265 37.6955 9.50021C37.698 9.50544 37.7005 9.51067 37.703 9.5159ZM48.8406 7.02188C48.8406 5.46875 48.2281 3.98125 47.1344 2.8875C46.0775 1.83061 44.7065 1.2449 43.2446 1.18615L43.9188 5.775L44.0062 6.40938L48.189 9.72073C48.6184 8.89443 48.8406 7.97462 48.8406 7.02188Z" fill="#DF1B2A"/>
<path d="M54.6494 13.3896C54.6494 13.152 54.7113 12.9697 54.835 12.8428C54.9587 12.7158 55.1377 12.6523 55.3721 12.6523C55.6097 12.6523 55.7904 12.7191 55.9141 12.8525C56.0378 12.9827 56.0996 13.1618 56.0996 13.3896C56.0996 13.6208 56.0361 13.8047 55.9092 13.9414C55.7855 14.0749 55.6064 14.1416 55.3721 14.1416C55.1377 14.1416 54.9587 14.0749 54.835 13.9414C54.7113 13.8079 54.6494 13.624 54.6494 13.3896ZM57.4033 13.3896C57.4033 13.152 57.4652 12.9697 57.5889 12.8428C57.7126 12.7158 57.8916 12.6523 58.126 12.6523C58.3636 12.6523 58.5443 12.7191 58.668 12.8525C58.7917 12.9827 58.8535 13.1618 58.8535 13.3896C58.8535 13.6208 58.79 13.8047 58.6631 13.9414C58.5394 14.0749 58.3604 14.1416 58.126 14.1416C57.8916 14.1416 57.7126 14.0749 57.5889 13.9414C57.4652 13.8079 57.4033 13.624 57.4033 13.3896ZM60.1572 13.3896C60.1572 13.152 60.2191 12.9697 60.3428 12.8428C60.4665 12.7158 60.6455 12.6523 60.8799 12.6523C61.1175 12.6523 61.2982 12.7191 61.4219 12.8525C61.5456 12.9827 61.6074 13.1618 61.6074 13.3896C61.6074 13.6208 61.5439 13.8047 61.417 13.9414C61.2933 14.0749 61.1143 14.1416 60.8799 14.1416C60.6455 14.1416 60.4665 14.0749 60.3428 13.9414C60.2191 13.8079 60.1572 13.624 60.1572 13.3896Z" fill="#DF1B2A"/>
</svg>
