<svg width="73" height="73" viewBox="0 0 73 73" fill="none" xmlns="http://www.w3.org/2000/svg">
<path d="M69.5395 28.6123C69.5395 26.1373 67.5145 25.2373 66.1645 25.2373H58.2895V30.1198C54.6445 24.7873 48.367 22.9873 45.9145 22.9873C43.4395 22.9873 42.5395 25.0123 42.5395 26.3623V29.7373H36.217L33.967 34.2373L18.7345 34.2598C4.28949 36.6673 4.28949 39.0748 4.28949 39.8623C4.28949 42.4498 8.31699 46.6123 9.12699 47.3998L9.44199 47.7373H15.6745C17.0695 49.1323 19.027 49.9873 21.1645 49.9873C23.302 49.9873 25.2595 49.1323 26.6545 47.7373H51.6745C53.0695 49.1323 55.027 49.9873 57.1645 49.9873C61.507 49.9873 65.0395 46.4548 65.0395 42.1123C65.0395 41.6848 64.9945 41.2573 64.927 40.8298C68.122 36.9598 69.5395 30.4573 69.5395 28.6123ZM60.5395 27.4873H66.142C66.6595 27.5098 67.2895 27.7123 67.2895 28.6123C67.2895 28.8823 67.2445 29.2648 67.177 29.7373H60.5395V27.4873ZM14.077 45.4873H10.387C8.56449 43.5973 6.71949 41.1223 6.53949 40.0198C7.25949 39.23 10.972 38.1298 14.977 37.2523C13.9195 38.5798 13.2895 40.2898 13.2895 42.1123C13.2895 43.3273 13.5595 44.4748 14.077 45.4873ZM21.1645 47.7373C18.0595 47.7373 15.5395 45.2173 15.5395 42.1123C15.5395 39.0073 18.0595 36.4873 21.1645 36.4873C24.2695 36.4873 26.7895 39.0073 26.7895 42.1123C26.7895 45.2173 24.2695 47.7373 21.1645 47.7373ZM50.077 38.7373H34.6645C34.0345 38.7373 33.5395 39.2323 33.5395 39.8623C33.5395 40.4923 34.0345 40.9873 34.6645 40.9873H49.3795C49.312 41.3473 49.2895 41.7298 49.2895 42.1123C49.2895 43.3273 49.5595 44.4748 50.077 45.4873H28.252C28.7695 44.4748 29.0395 43.3273 29.0395 42.1123C29.0395 39.9073 28.1395 37.9048 26.6545 36.4873H35.362L37.612 31.9873H44.7895V26.3848C44.812 25.8448 45.0145 25.2373 45.9145 25.2373C47.4445 25.2373 55.252 26.8348 57.8845 34.2823C57.637 34.2373 57.412 34.2373 57.1645 34.2373C54.037 34.2373 51.3145 36.0823 50.077 38.7373ZM57.1645 47.7373C54.0595 47.7373 51.5395 45.2173 51.5395 42.1123C51.5395 39.0073 54.0595 36.4873 57.1645 36.4873C60.2695 36.4873 62.7895 39.0073 62.7895 42.1123C62.7895 45.2173 60.2695 47.7373 57.1645 47.7373ZM60.5395 35.0248V31.9873H66.682C66.142 33.9673 65.2397 36.3523 64.0247 38.2423C63.217 36.8473 62.002 35.6998 60.5395 35.0248Z" fill="#B2BFCF"/>
</svg>
