<svg width="73" height="73" viewBox="0 0 73 73" fill="none" xmlns="http://www.w3.org/2000/svg">
<path fill-rule="evenodd" clip-rule="evenodd" d="M20.75 29.5C20.75 17.08 30.83 7 43.25 7C55.67 7 65.75 17.08 65.75 29.5C65.75 41.1528 56.8625 50.7625 45.5 51.8875V65.5H7.25V38.5H22.64C21.425 35.755 20.75 32.695 20.75 29.5ZM26.375 53.89L41.3825 40.75H11.3675L26.375 53.89ZM18.7475 50.2L9.5 42.1225V61.27L18.7475 50.2ZM20.435 51.6625L10.76 63.25H41.99L32.315 51.6625L26.375 56.8623L20.435 51.6625ZM34.0025 50.2L43.25 61.27V42.1225L34.0025 50.2ZM45.5 38.5V42.7975V45.07V49.615C55.6025 48.5125 63.5 39.895 63.5 29.5C63.5 18.34 54.41 9.25 43.25 9.25C32.09 9.25 23 18.34 23 29.5C23 32.7175 23.765 35.7775 25.115 38.5H30.335H33.215H45.5Z" fill="#B2BFCF"/>
<path d="M49.0087 29.0006L45.6881 33.3676L39.6938 28.8074L43.0117 24.4424L43.1024 24.323L42.9831 24.2322L39.3747 21.4871C38.9269 21.1457 38.2593 20.8709 37.5445 20.8854C36.8228 20.9 36.062 21.2097 35.4439 22.0215L35.4438 22.0216L34.3082 23.5169L34.3082 23.5169L34.3068 23.5188L34.3058 23.5201C34.2582 23.5849 33.8866 24.0903 33.7534 24.796C33.5583 25.8275 33.9534 26.773 34.8431 27.4498L48.2898 37.6808L48.3806 37.5615L48.2898 37.6808C48.7985 38.0678 49.5938 38.3706 50.4187 38.2584C51.0513 38.1724 51.6881 37.8443 52.2246 37.1446L52.2249 37.1441L53.3621 35.6487C53.7019 35.2018 53.9766 34.5346 53.9625 33.8196C53.9483 33.0978 53.6393 32.3363 52.8276 31.7173L52.8274 31.7172L49.2189 28.972L49.0995 28.8812L49.0087 29.0006ZM50.7454 36.0228L50.7453 36.0229C50.4798 36.3729 50.2082 36.4486 49.9832 36.4322C49.746 36.4148 49.5357 36.2927 49.4134 36.203C49.4131 36.2028 49.4127 36.2025 49.4124 36.2023L47.1631 34.4911L49.4503 31.4833L51.7014 33.1959C52.0497 33.4615 52.1254 33.7337 52.1092 33.9593C52.092 34.1969 51.9705 34.4072 51.8818 34.5284C51.8815 34.5287 51.8813 34.529 51.881 34.5294L50.7454 36.0228ZM36.9203 23.1452C36.9203 23.1451 36.9204 23.145 36.9205 23.145C37.1305 22.8705 37.3431 22.7675 37.5279 22.7424C37.8237 22.7021 38.1006 22.856 38.2515 22.9638L40.5011 24.6752L38.2154 27.6828L35.966 25.9715C35.6168 25.7058 35.541 25.4341 35.5572 25.2089C35.5744 24.9716 35.6962 24.7613 35.7857 24.6391L36.9203 23.1452Z" fill="#B2BFCF" stroke="#B2BFCF" stroke-width="0.3"/>
</svg>
