<svg width="73" height="73" viewBox="0 0 73 73" fill="none" xmlns="http://www.w3.org/2000/svg">
<path fill-rule="evenodd" clip-rule="evenodd" d="M39.9048 5.58301L39.8462 6.47396C39.8192 6.89332 39.6153 7.20027 39.2192 7.4847C38.8231 7.76933 38.2437 7.96248 37.7233 7.99756H32.8103C29.5408 7.99756 26.8889 10.7294 26.8889 14.0807V18.6403C26.8889 18.7706 26.8926 18.8057 26.8926 18.6965C26.8925 18.6313 26.8889 18.6222 26.8889 18.7563V20.7441C26.8827 20.8076 26.8827 20.8716 26.8889 20.9351V24.9069C26.8889 27.393 27.7917 29.6399 29.2318 31.4093V36.5866L18.8557 42.7297C16.1643 44.2954 14.5 47.2115 14.5 50.3664V62.6787H32.8506L36.803 66.9163L40.7555 62.675H59.1061V50.153C59.1061 47.125 57.5037 44.3272 54.919 42.827L44.5979 36.5866V31.1361C45.9076 29.4085 46.7171 27.2655 46.7171 24.9069V21.6126C46.7224 21.5541 46.7224 21.4952 46.7171 21.4367V18.7563C46.7171 18.6509 46.7144 18.6617 46.7134 18.7077C46.7141 18.746 46.7171 18.7665 46.7171 18.6515V11.9132L46.7098 11.8496C46.4907 10.1405 45.9736 8.59898 44.9939 7.43978C44.0142 6.28077 42.5451 5.58187 40.7775 5.59049V5.58301H39.9048ZM41.1221 7.64193C42.1808 7.72626 43.0069 8.01044 43.575 8.68262C44.2168 9.442 44.6503 10.6195 44.8399 12.0742V18.644C44.8399 18.5444 44.8375 18.5758 44.8362 18.6927C44.8362 18.8403 44.8399 18.8369 44.8399 18.7526V19.2804C44.3148 18.9817 43.7523 18.7729 43.1827 18.6665C41.8814 18.4233 40.5313 18.5248 39.2302 18.5804C37.9291 18.636 36.6833 18.6455 35.6628 18.3595C34.6422 18.0732 33.8366 17.5621 33.1622 16.3755C33.0759 16.2223 32.9497 16.0964 32.7976 16.0118C32.6456 15.9273 32.4736 15.8873 32.3006 15.8963C32.1034 15.9075 31.9147 15.9819 31.7613 16.1089C31.608 16.236 31.4977 16.4091 31.4463 16.6038C31.4704 16.5118 31.2845 16.9069 30.9734 17.2814C30.6621 17.6559 30.2374 18.0955 29.7891 18.5018C29.441 18.8173 29.0955 19.0678 28.7662 19.3029V18.7526C28.7662 18.858 28.7698 18.8229 28.7698 18.7002C28.7698 18.5526 28.7662 18.5597 28.7662 18.644V14.0845C28.7662 11.7544 30.5557 9.91797 32.8103 9.91797H37.815H37.8443C38.6922 9.86047 39.5635 9.59028 40.3008 9.06071C40.7267 8.75481 40.8602 8.14688 41.1221 7.64567V7.64193ZM32.4693 18.4157C33.2703 19.2791 34.1781 19.9274 35.1678 20.2051C36.5525 20.5936 37.9761 20.5536 39.3072 20.4971C40.6383 20.4415 41.8844 20.3712 42.8453 20.5495C43.7432 20.7178 44.3509 21.0359 44.8399 21.7998V24.9032C44.8399 29.5062 41.267 33.1763 36.803 33.1763C32.3391 33.1763 28.7662 29.5062 28.7662 24.9032V21.5677C29.009 21.4545 29.2342 21.3129 29.4775 21.1559C29.9943 20.8222 30.5279 20.3957 31.0357 19.9355C31.5435 19.4752 32.021 18.9847 32.407 18.5205C32.4355 18.486 32.4417 18.4502 32.4693 18.4157ZM42.7207 33.0415V36.7887L36.7187 41.9697L31.109 37.1294V33.2287C32.722 34.3973 34.6782 35.0967 36.803 35.0967C39.0306 35.0967 41.0662 34.315 42.7207 33.0415ZM43.8243 38.3498L45.8482 39.5739L42.2477 45.7244L39.8938 43.8265L38.6509 42.8158L43.8243 38.3498ZM29.7708 38.4808L34.7938 42.8195L33.7819 43.6506L31.1934 45.7244L27.6809 39.7199L29.7708 38.4808ZM47.4614 40.5509L53.984 44.4928H53.9914C55.9947 45.6557 57.2288 47.8133 57.2288 50.153V60.7583H51.8721V55.8356H49.9949V60.7583H41.3751L39.6959 47.9069C39.9898 47.5303 40.2255 47.1114 40.3632 46.6491L42.7647 48.5807L47.4614 40.5509ZM26.0567 40.682L30.6727 48.577L33.2026 46.5518C33.3373 47.0522 33.5945 47.5029 33.9102 47.9069L32.2273 60.762H23.9191V55.8356H22.0419V60.762H16.3772V50.3664C16.3772 47.8971 17.6765 45.619 19.7907 44.3918H19.7944L26.0567 40.682ZM36.7224 43.6992L38.6583 45.2752V45.5485C38.6582 46.2274 38.3064 46.8525 37.7306 47.1919C37.1549 47.5311 36.4512 47.5311 35.8754 47.1919C35.2997 46.8525 34.9442 46.2274 34.9441 45.5485V45.1554L34.9478 45.1517L36.7224 43.6992ZM35.6371 49.146C36.3962 49.4023 37.2059 49.401 37.9653 49.146L39.5382 61.2038L36.803 64.1349L34.0642 61.2038L35.6371 49.146Z" fill="#B2BFCF"/>
</svg>
