<svg width="24" height="25" viewBox="0 0 24 25" fill="none" xmlns="http://www.w3.org/2000/svg">
<rect y="0.75" width="24" height="24" rx="12" fill="#27AE60"/>
<path d="M7.71699 11.4529C7.33201 11.0569 6.69891 11.048 6.30292 11.433C5.90694 11.818 5.89802 12.4511 6.28301 12.8471L7.71699 11.4529ZM10.5 15.75L9.783 16.4471C9.97129 16.6407 10.2299 16.75 10.5 16.75C10.7701 16.75 11.0287 16.6407 11.217 16.4471L10.5 15.75ZM17.0503 10.4471C17.4353 10.0511 17.4264 9.41799 17.0304 9.03301C16.6344 8.64802 16.0013 8.65694 15.6163 9.05292L17.0503 10.4471ZM6.28301 12.8471L9.783 16.4471L11.217 15.0529L7.71699 11.4529L6.28301 12.8471ZM11.217 16.4471L17.0503 10.4471L15.6163 9.05292L9.783 15.0529L11.217 16.4471Z" fill="white"/>
</svg>
