<svg width="44" height="15" fill="none" xmlns="http://www.w3.org/2000/svg"><path fill-rule="evenodd" clip-rule="evenodd" d="M6.722.001a7.012 7.012 0 00-3.129.874A7 7 0 00.02 6.409c-.017.216-.019.282-.019.59s.002.374.02.59a6.977 6.977 0 002.446 4.753 6.983 6.983 0 004.83 1.653 6.969 6.969 0 003.483-1.094 7.052 7.052 0 001.829-1.699A6.963 6.963 0 0014 7.002c0-.306-.002-.379-.02-.593a6.973 6.973 0 00-2.374-4.691A6.991 6.991 0 007.418.008C7.346.003 6.786-.002 6.722 0zm.556.827A5.926 5.926 0 019 1.171c.002.002-1.925 4.154-1.932 4.163a.195.195 0 00-.017.028C7.04 5.384 7.019 5.4 7 5.4c-.02 0-.04-.015-.05-.037a.195.195 0 00-.018-.028A1204.88 1204.88 0 015 1.17l.062-.022A5.957 5.957 0 016.71.83c.113-.006.452-.006.568 0zM5.142 4.01c.788 1.7 1.124 2.419 1.14 2.441.025.035.058.06.093.068.032.007 1.216.007 1.25 0a.16.16 0 00.096-.073c.017-.024.343-.73 1.125-2.437l1.105-2.407c.007-.007.228.126.41.247.618.413 1.163.93 1.59 1.512.07.094.218.313.256.376l.021.037-1.57 3.04A829.139 829.139 0 019.074 9.87c-.024.03-.058.039-.079.022a.206.206 0 01-.028-.04c-.01-.016-.29-.628-.62-1.36a53.14 53.14 0 00-.627-1.364.16.16 0 00-.097-.073 14.257 14.257 0 00-.639-.004l-.613.002-.025.012a.21.21 0 00-.082.082c-.008.014-.285.622-.615 1.35-.33.73-.608 1.34-.618 1.356-.023.038-.034.047-.059.047-.025 0-.042-.017-.072-.07-.022-.04-3.125-5.998-3.143-6.036l-.01-.022.03-.05a6.29 6.29 0 011.838-1.873c.165-.109.395-.25.405-.248.002 0 .507 1.085 1.121 2.41zM3.01 8.495a967.606 967.606 0 001.83 3.552c.049.074.1.102.186.103.093 0 .152-.04.206-.14.01-.018.395-.872.856-1.898l.846-1.88c.013-.025.042-.052.059-.056a.047.047 0 01.052.024.592.592 0 00.02.033c.006.01.394.856.862 1.88.468 1.026.858 1.879.868 1.897.057.104.118.144.218.139.081-.005.128-.032.173-.102.013-.02.837-1.618 1.831-3.552.995-1.934 1.81-3.516 1.812-3.516.003 0 .039.102.074.212a5.963 5.963 0 01.248 2.363 6.241 6.241 0 01-1.643 3.633c-.157.17-.396.398-.573.546a6.149 6.149 0 01-3.124 1.389c-.3.04-.458.05-.81.05-.306 0-.398-.004-.622-.028a6.085 6.085 0 01-2.27-.703A6.279 6.279 0 011.623 9.98a6.127 6.127 0 01-.77-2.702 9.343 9.343 0 01.005-.653 6.27 6.27 0 01.34-1.645c.002 0 .817 1.582 1.812 3.516zM24.413.014A7.061 7.061 0 0020.05 2.05a7.004 7.004 0 00-1.687 7.177 6.805 6.805 0 001.71 2.736 6.9 6.9 0 003.54 1.905c.872.18 1.937.176 2.824-.012a6.902 6.902 0 003.519-1.916c.376-.379.593-.643.868-1.053A7.007 7.007 0 0025.898.05a9.69 9.69 0 00-1.485-.036zm-5.5 5.484A6.293 6.293 0 0124.242.77a6.898 6.898 0 012.116.103 6.63 6.63 0 012.075.874c1.546 1.023 2.536 2.606 2.793 4.464.05.364.044 1.3-.012 1.665-.212 1.393-.8 2.57-1.774 3.548a6.07 6.07 0 01-1.341 1.031 6.276 6.276 0 01-4.256.71 6.283 6.283 0 01-4.77-4.124c-.24-.698-.325-1.235-.326-2.036-.001-.665.03-.944.168-1.508z" fill="#DF1B2A"/><path fill-rule="evenodd" clip-rule="evenodd" d="M24.362 1.898c-.272.038-.752.147-.86.197-.066.03-.096.093-.073.152.008.02.143.156.3.301.509.467 1.01 1.047 1.237 1.43l.065.108h-.098c-.149-.001-.274-.072-.61-.346-.721-.59-1.625-1.216-1.757-1.216-.106 0-.278.095-.578.32-.286.213-.865.756-.89.833-.026.084.027.136.312.305.52.308.94.604 1.375.972.212.179.224.194.18.227-.095.071-.282.023-.844-.219-.857-.367-1.405-.555-1.508-.517-.083.031-.131.101-.267.385-.165.346-.29.727-.37 1.122-.065.319-.062.395.015.459.02.016.18.06.355.096.384.08.913.253 1.21.395.803.383 1.354 1.017 1.588 1.827.145.5.142.673-.01.736-.107.044-.18.02-.72-.233l-.485-.228h-.813c-.796 0-.815.001-.872.055-.046.042-.056.073-.046.137.008.047.168.31.383.63.203.301.419.632.479.734.136.231.17.244.628.233l.333-.009.337-.199.338-.198h2.458c2.403 0 2.458.001 2.483.05a.453.453 0 01.027.164c0 .217.065.23.512.101a3.101 3.101 0 001.158-.62c.161-.144.164-.22.013-.363-.343-.323-1.007-.646-1.45-.704-.187-.025-.233.02-.233.232 0 .192-.042.244-.199.244-.082 0-.116-.015-.157-.068-.072-.09-.067-.178.023-.496.376-1.316.46-2.693.23-3.79a5.614 5.614 0 00-1.102-2.344c-.22-.275-.72-.768-.866-.853-.113-.067-.131-.07-.54-.074a5.356 5.356 0 00-.69.032zM26.54 8.39a.628.628 0 00-.31-.682.605.605 0 00-.9.54.578.578 0 00.44.595.616.616 0 00.77-.453z" fill="#DF1B2A"/><path d="M36.65 13.39c0-.238.061-.42.185-.547.124-.127.303-.19.537-.19.238 0 .418.066.542.2.124.13.186.309.186.537 0 .23-.064.415-.19.551-.124.134-.304.2-.538.2-.234 0-.413-.066-.537-.2-.124-.133-.186-.317-.186-.551zm2.753 0c0-.238.062-.42.186-.547.124-.127.303-.19.537-.19.238 0 .418.066.542.2.124.13.185.309.185.537 0 .23-.063.415-.19.551-.124.134-.303.2-.537.2-.234 0-.413-.066-.537-.2-.124-.133-.186-.317-.186-.551zm2.754 0c0-.238.062-.42.186-.547.123-.127.302-.19.537-.19.237 0 .418.066.542.2.124.13.185.309.185.537 0 .23-.063.415-.19.551-.124.134-.303.2-.537.2-.235 0-.413-.066-.537-.2-.124-.133-.186-.317-.186-.551z" fill="#DF1B2A"/></svg>