<svg width="46" height="14" fill="none" xmlns="http://www.w3.org/2000/svg"><path d="M24.458 10.38c-.895 0-1.719-.3-2.378-.804a4.953 4.953 0 000-6.152 3.902 3.902 0 012.378-.805c2.154 0 3.906 1.741 3.906 3.881 0 2.14-1.752 3.88-3.906 3.88zm-8.72-.804a4.953 4.953 0 000-6.152 3.902 3.902 0 012.378-.805c.895 0 1.719.301 2.378.805a4.954 4.954 0 000 6.152 3.902 3.902 0 01-2.378.805c-.894 0-1.719-.3-2.378-.805zm-6.342 0a4.953 4.953 0 000-6.152 3.903 3.903 0 012.378-.805c.895 0 1.72.301 2.379.805a4.954 4.954 0 000 6.152 3.902 3.902 0 01-2.379.805c-.894 0-1.718-.3-2.378-.805zM1.526 6.5c0-2.14 1.753-3.88 3.907-3.88.894 0 1.719.3 2.378.804a4.954 4.954 0 000 6.152 3.902 3.902 0 01-2.378.805c-2.154 0-3.907-1.741-3.907-3.881zm7.078 2.263a3.841 3.841 0 010-4.526 3.841 3.841 0 010 4.526zm6.341 0a3.84 3.84 0 010-4.526 3.841 3.841 0 010 4.526zm6.342 0a3.84 3.84 0 010-4.526 3.841 3.841 0 010 4.526zm3.17-7.263c-1.2 0-2.304.42-3.17 1.12a5.03 5.03 0 00-3.17-1.12c-1.202 0-2.306.42-3.172 1.12a5.03 5.03 0 00-3.17-1.12c-1.202 0-2.305.42-3.171 1.12A5.03 5.03 0 005.433 1.5C2.658 1.5.4 3.743.4 6.5s2.258 5 5.033 5c1.2 0 2.305-.42 3.17-1.12.867.7 1.97 1.12 3.171 1.12 1.202 0 2.305-.42 3.171-1.12.866.7 1.97 1.12 3.171 1.12 1.201 0 2.305-.42 3.171-1.12.866.7 1.97 1.12 3.17 1.12 2.776 0 5.034-2.243 5.034-5s-2.258-5-5.033-5z" fill="#A7B0B9"/><path fill-rule="evenodd" clip-rule="evenodd" d="M37.92.168c-2.06.334-3.888 1.053-4.283 1.684-.375.597-.306 1.77.212 3.63.198.71.279.86.427.79 1.767-.831 3.723-1.128 8.117-1.23l3.334-.077.133-.66c.168-.837.187-1.818.044-2.212-.285-.784-2.153-1.589-4.47-1.927-1.525-.222-2.14-.222-3.514.002zM36.176 2.33c.303.317.228.982-.156 1.383-.299.312-.414.351-1.047.351-.679 0-.709-.012-.651-.27.033-.15.124-.582.203-.962l.143-.69h.664c.45 0 .721.06.844.188zm1.28.016a4.878 4.878 0 00-.146.74c-.1.764.143.547.322-.286.137-.64.151-.659.533-.659.32 0 .38.039.33.21-.033.116-.11.445-.17.73-.06.286-.198.623-.307.749-.253.292-.826.406-1.232.245-.357-.142-.389-.36-.19-1.327.12-.59.136-.607.53-.607.334 0 .392.036.33.205zm2.743-.132c.1.04.182.203.182.36 0 .238-.059.288-.336.288-.184 0-.359-.067-.388-.15-.082-.234-.295.038-.38.484-.072.374.08.541.241.267.074-.125.748-.172.748-.052 0 .411-.806.865-1.266.713-.965-.32-.477-1.983.582-1.983.24 0 .517.033.617.073zm1.956.198c.03.148.086.58.125.961l.072.691h-.41c-.227 0-.411-.054-.411-.12s-.13-.12-.288-.12c-.158 0-.287.054-.287.12s-.181.12-.403.12h-.402l.488-.96.49-.958.486-.002c.412-.002.494.038.54.268zm2 0c-.024.174-.117.27-.26.27-.219 0-.24.05-.458 1.052-.06.28-.13.33-.456.33h-.385l.15-.674c.14-.636.137-.678-.073-.735-.22-.06-.294-.279-.146-.434.042-.044.434-.08.87-.08.758 0 .792.013.757.27zm.904 0c-.033.148-.12.58-.192.961-.132.683-.138.691-.535.691-.328 0-.392-.04-.347-.21.03-.116.118-.508.195-.872.18-.847.175-.84.59-.84.304 0 .342.035.29.27zm-9.802.628c-.082.455-.005.665.174.475.164-.175.194-.802.04-.858-.081-.03-.167.124-.214.383zm6.18.003c-.108.246-.101.3.038.3.105 0 .17-.115.17-.3 0-.166-.017-.3-.039-.3-.021 0-.098.134-.17.3zm2.336 2.715c-4.788.41-7.555 1.489-8.175 3.185l-.196.538.532.806c1.089 1.652 2.903 3.548 3.534 3.693.477.11.964-.209 2.01-1.31 1.665-1.755 2.881-3.716 3.624-5.842.35-1.004.353-1.214.015-1.185l-1.344.115z" fill="#A7B0B9"/></svg>