<svg width="73" height="73" fill="none" xmlns="http://www.w3.org/2000/svg"><path d="M69.54 28.612c0-2.475-2.026-3.375-3.376-3.375H58.29v4.883c-3.645-5.333-9.922-7.133-12.375-7.133-2.474 0-3.375 2.025-3.375 3.375v3.375h-6.322l-2.25 4.5-15.232.023C4.289 36.667 4.289 39.075 4.289 39.862c0 2.588 4.028 6.75 4.838 7.538l.315.337h6.232a7.755 7.755 0 005.49 2.25 7.755 7.755 0 005.49-2.25h25.02a7.755 7.755 0 005.49 2.25c4.343 0 7.876-3.532 7.876-7.875 0-.427-.046-.855-.113-1.282 3.195-3.87 4.612-10.373 4.612-12.218zm-9-1.125h5.602c.517.023 1.148.225 1.148 1.125 0 .27-.046.653-.113 1.125h-6.638v-2.25zm-46.463 18h-3.69c-1.823-1.89-3.668-4.365-3.848-5.467.72-.79 4.433-1.89 8.438-2.768a7.812 7.812 0 00-1.688 4.86c0 1.215.27 2.363.788 3.375zm7.088 2.25a5.627 5.627 0 01-5.625-5.625 5.627 5.627 0 015.625-5.625 5.627 5.627 0 015.625 5.625 5.627 5.627 0 01-5.625 5.625zm28.912-9H34.664c-.63 0-1.125.495-1.125 1.125s.495 1.125 1.125 1.125H49.38c-.067.36-.09.743-.09 1.125 0 1.215.27 2.363.788 3.375H28.252a7.38 7.38 0 00.788-3.375c0-2.205-.9-4.207-2.386-5.625h8.708l2.25-4.5h7.177v-5.602c.023-.54.225-1.148 1.125-1.148 1.53 0 9.338 1.598 11.97 9.045-.247-.045-.472-.045-.72-.045a7.828 7.828 0 00-7.087 4.5zm7.087 9a5.627 5.627 0 01-5.625-5.625 5.627 5.627 0 015.625-5.625 5.627 5.627 0 015.625 5.625 5.627 5.627 0 01-5.625 5.625zm3.375-12.712v-3.038h6.143c-.54 1.98-1.442 4.365-2.657 6.255-.808-1.395-2.023-2.542-3.486-3.217z" fill="#B2BFCF"/></svg>