<svg width="73" height="73" fill="none" xmlns="http://www.w3.org/2000/svg"><path fill-rule="evenodd" clip-rule="evenodd" d="M20.75 29.5C20.75 17.08 30.83 7 43.25 7s22.5 10.08 22.5 22.5c0 11.653-8.888 21.263-20.25 22.388V65.5H7.25v-27h15.39a22.232 22.232 0 01-1.89-9zm5.625 24.39l15.008-13.14H11.367l15.008 13.14zm-7.628-3.69L9.5 42.122V61.27l9.247-11.07zm1.688 1.462L10.76 63.25h31.23l-9.675-11.587-5.94 5.2-5.94-5.2zM34.002 50.2l9.248 11.07V42.122L34.002 50.2zM45.5 38.5v11.115c10.102-1.102 18-9.72 18-20.115 0-11.16-9.09-20.25-20.25-20.25S23 18.34 23 29.5c0 3.218.765 6.278 2.115 9H45.5z" fill="#B2BFCF"/><path d="M49.009 29l-3.32 4.368-5.995-4.56 3.318-4.366.09-.119-.119-.09-3.608-2.746a3.006 3.006 0 00-1.83-.602c-.722.015-1.483.325-2.101 1.136h0l-1.136 1.496h0l-.001.002-.001.001c-.048.065-.42.57-.553 1.276-.195 1.032.2 1.977 1.09 2.654L48.29 37.68l.09-.118-.09.119c.508.387 1.304.69 2.129.577.632-.086 1.27-.414 1.806-1.113h0l1.137-1.496c.34-.447.615-1.114.6-1.83-.014-.721-.323-1.483-1.134-2.102h0l-3.61-2.745-.119-.09-.09.119zm1.736 7.023h0c-.265.35-.537.426-.762.41a1.154 1.154 0 01-.57-.23s0 0 0 0l-2.25-1.712 2.287-3.008 2.251 1.713c.349.266.424.538.408.763a1.152 1.152 0 01-.227.57h-.001l-1.136 1.494zM36.92 23.145s0 0 0 0c.21-.274.423-.378.608-.403.296-.04.573.114.724.222l2.25 1.711-2.287 3.008-2.249-1.712c-.35-.265-.425-.537-.409-.762.017-.237.14-.448.229-.57l1.134-1.494z" fill="#B2BFCF" stroke="#B2BFCF" stroke-width=".3"/></svg>