<svg width="73" height="73" fill="none" xmlns="http://www.w3.org/2000/svg"><path fill-rule="evenodd" clip-rule="evenodd" d="M39.905 5.583l-.059.891c-.027.42-.23.726-.627 1.01-.396.285-.975.478-1.496.514H32.81c-3.27 0-5.921 2.731-5.921 6.083v4.56c0 .13.004.165.004.056 0-.066-.004-.075-.004.06v1.987a.983.983 0 000 .191v3.972c0 2.486.903 4.733 2.343 6.502v5.178L18.856 42.73c-2.692 1.565-4.356 4.482-4.356 7.636V62.68h18.35l3.953 4.237 3.953-4.241h18.35V50.153c0-3.028-1.602-5.826-4.187-7.326l-10.321-6.24v-5.45c1.31-1.729 2.12-3.872 2.12-6.23v-3.294a.975.975 0 000-.176v-2.68c0-.106-.004-.095-.005-.05.001.039.004.06.004-.056v-6.738l-.007-.063c-.22-1.71-.736-3.251-1.716-4.41-.98-1.16-2.449-1.858-4.216-1.85v-.007h-.873zm1.217 2.059c1.059.084 1.885.368 2.453 1.04.642.76 1.075 1.938 1.265 3.392v6.57c0-.1-.003-.068-.004.049 0 .147.004.144.004.06v.527a5.354 5.354 0 00-1.657-.614c-1.302-.243-2.652-.141-3.953-.086-1.3.056-2.547.066-3.567-.22-1.02-.287-1.826-.798-2.5-1.985a.948.948 0 00-.365-.363.924.924 0 00-.497-.116.928.928 0 00-.54.213.961.961 0 00-.315.495c.024-.092-.162.303-.473.677-.31.375-.736.815-1.184 1.22-.348.316-.694.567-1.023.802v-.55c0 .105.004.07.004-.053 0-.147-.004-.14-.004-.056v-4.56c0-2.33 1.79-4.166 4.044-4.166h5.035c.847-.058 1.718-.328 2.456-.857.426-.306.56-.914.821-1.415v-.004zM32.47 18.416c.801.863 1.71 1.511 2.699 1.79 1.385.388 2.808.348 4.14.291 1.33-.055 2.576-.126 3.537.052.898.169 1.506.487 1.995 1.25v3.104c0 4.603-3.573 8.273-8.037 8.273s-8.037-3.67-8.037-8.273v-3.335c.243-.114.468-.255.712-.412a12.43 12.43 0 001.558-1.22c.508-.46.985-.951 1.371-1.416.029-.034.035-.07.062-.104zM42.721 33.04v3.748l-6.002 5.18-5.61-4.84v-3.9c1.613 1.168 3.57 1.868 5.694 1.868 2.228 0 4.263-.782 5.918-2.056zm1.103 5.309l2.024 1.224-3.6 6.15-2.354-1.897-1.243-1.011 5.173-4.466zm-14.053.13l5.023 4.34-1.012.83-2.589 2.074-3.512-6.004 2.09-1.24zm17.69 2.07l6.523 3.943h.007a6.536 6.536 0 013.238 5.66v10.605h-5.357v-4.922h-1.877v4.922h-8.62l-1.68-12.851c.295-.377.53-.796.668-1.258l2.402 1.932 4.696-8.03zm-21.404.132l4.616 7.895 2.53-2.025c.134.5.391.95.707 1.355l-1.683 12.855H23.92v-4.926h-1.877v4.926h-5.665V50.366c0-2.469 1.3-4.747 3.414-5.974h.003l6.263-3.71zm10.665 3.017l1.936 1.576v.273c0 .68-.352 1.304-.927 1.644-.576.34-1.28.34-1.856 0a1.905 1.905 0 01-.93-1.644v-.393l.003-.003 1.774-1.453zm-1.085 5.447a3.63 3.63 0 002.328 0l1.573 12.058-2.735 2.93-2.739-2.93 1.573-12.058z" fill="#B2BFCF"/></svg>